<?xml version="1.0" encoding="UTF-8" standalone="no"?>
<!-- Created with Inkscape (http://www.inkscape.org/) -->

<svg
   xmlns:dc="http://purl.org/dc/elements/1.1/"
   xmlns:cc="http://creativecommons.org/ns#"
   xmlns:rdf="http://www.w3.org/1999/02/22-rdf-syntax-ns#"
   xmlns:svg="http://www.w3.org/2000/svg"
   xmlns="http://www.w3.org/2000/svg"
   xmlns:sodipodi="http://sodipodi.sourceforge.net/DTD/sodipodi-0.dtd"
   xmlns:inkscape="http://www.inkscape.org/namespaces/inkscape"
   width="177.48003mm"
   height="76.006172mm"
   viewBox="0 0 177.48003 76.006172"
   version="1.1"
   id="svg2376"
   inkscape:version="0.92.3 (2405546, 2018-03-11)"
   sodipodi:docname="hsel-welle-grey.svg">
  <defs
     id="defs2370">
    <clipPath
       clipPathUnits="userSpaceOnUse"
       id="clipPath250">
      <path
         d="M 43.257,422.003 H 546.35 V 693.279 H 43.257 Z"
         id="path248"
         inkscape:connector-curvature="0" />
    </clipPath>
  </defs>
  <sodipodi:namedview
     id="base"
     pagecolor="#ffffff"
     bordercolor="#666666"
     borderopacity="1.0"
     inkscape:pageopacity="0.0"
     inkscape:pageshadow="2"
     inkscape:zoom="1.4142136"
     inkscape:cx="327.60877"
     inkscape:cy="188.66034"
     inkscape:document-units="mm"
     inkscape:current-layer="layer1"
     showgrid="false"
     inkscape:window-width="1853"
     inkscape:window-height="1052"
     inkscape:window-x="1987"
     inkscape:window-y="0"
     inkscape:window-maximized="1"
     fit-margin-top="0"
     fit-margin-left="0"
     fit-margin-right="0"
     fit-margin-bottom="0" />
  <metadata
     id="metadata2373">
    <rdf:RDF>
      <cc:Work
         rdf:about="">
        <dc:format>image/svg+xml</dc:format>
        <dc:type
           rdf:resource="http://purl.org/dc/dcmitype/StillImage" />
        <dc:title></dc:title>
      </cc:Work>
    </rdf:RDF>
  </metadata>
  <g
     inkscape:label="Ebene 1"
     inkscape:groupmode="layer"
     id="layer1"
     transform="translate(-14.825461,-104.78263)">
    <g
       clip-path="url(#clipPath250)"
       id="g246"
       transform="matrix(0.35277777,0,0,-0.35277777,-0.43464714,341.44254)"
       style="stroke:#e6e6e6">
      <g
         transform="translate(698.0453,541.937)"
         id="g252"
         style="stroke:#e6e6e6">
        <path
           inkscape:connector-curvature="0"
           id="path254"
           style="fill:none;stroke:#e6e6e6;stroke-width:1.47399998;stroke-linecap:butt;stroke-linejoin:miter;stroke-miterlimit:4;stroke-dasharray:none;stroke-opacity:1"
           d="M 0,0 C 0,0 -86.711,192.257 -239.112,105.847 -391.513,19.436 -405.836,-89.623 -509.658,-85.701 -656.831,-80.139 -660.249,115.783 -660.249,115.783 M -11.747,-2.597 c 0,0 -87.942,185.806 -234.572,106.526 C -392.946,24.64 -416.159,-86.488 -526.237,-78.93 -672.112,-68.912 -678.089,115.629 -678.089,115.629 M -23.492,-5.195 c 0,0 -89.175,179.349 -230.034,107.198 -140.858,-72.15 -172.934,-185.53 -289.296,-174.17 -144.567,14.113 -153.106,187.641 -153.106,187.641 M -35.239,-7.783 c 0,0 -90.406,172.889 -225.494,107.868 -135.085,-65.028 -176.02,-180.807 -298.668,-165.481 -143.265,17.903 -154.366,180.723 -154.366,180.723 M -46.983,-10.381 c 0,0 -91.64,166.44 -220.957,108.541 C -397.251,40.268 -447.055,-78.098 -575.98,-58.633 -717.957,-37.202 -731.607,115.173 -731.607,115.173 M -58.73,-12.978 c 0,0 -92.874,159.99 -216.417,109.22 C -398.69,45.472 -457.367,-75.637 -592.559,-51.862 -733.26,-27.116 -749.446,115.019 -749.446,115.019 M -70.475,-15.575 c 0,0 -94.105,153.531 -211.88,109.892 C -400.123,50.684 -467.701,-73.365 -609.144,-45.099 -748.587,-17.234 -767.285,114.864 -767.285,114.864 M -82.222,-18.164 c 0,0 -95.339,147.073 -207.333,110.562 C -401.556,55.888 -478.052,-71.265 -625.723,-38.328 -763.935,-7.499 -785.118,114.717 -785.118,114.717 M -93.966,-20.761 c 0,0 -96.57,140.623 -202.796,111.241 C -402.995,61.092 -488.444,-69.351 -642.302,-31.565 -779.315,2.081 -802.957,114.562 -802.957,114.562 m 697.244,-137.92 c 0,0 -97.804,134.172 -198.257,111.913 -100.458,-22.251 -194.911,-156.154 -354.91,-113.35 -135.852,36.344 -161.916,139.203 -161.916,139.203 m 703.338,-140.364 c 0,0 -99.034,127.714 -193.718,112.593 -94.685,-15.129 -198.179,-152.688 -364.289,-104.668 -134.71,38.943 -163.171,132.285 -163.171,132.285 m 709.432,-142.798 c 0,0 -100.269,121.255 -189.18,113.256 -88.916,-7.991 -201.497,-149.384 -373.66,-95.973 -133.602,41.445 -164.43,125.368 -164.43,125.368 m 715.525,-145.249 c 0,0 -101.499,114.806 -184.642,113.936 -83.143,-0.87 -204.869,-146.273 -383.032,-87.292 -132.53,43.875 -165.691,118.45 -165.691,118.45" />
      </g>
    </g>
  </g>
</svg>
