<?xml version="1.0" encoding="UTF-8" standalone="no"?>
<!-- Created with Inkscape (http://www.inkscape.org/) -->

<svg
   xmlns:dc="http://purl.org/dc/elements/1.1/"
   xmlns:cc="http://creativecommons.org/ns#"
   xmlns:rdf="http://www.w3.org/1999/02/22-rdf-syntax-ns#"
   xmlns:svg="http://www.w3.org/2000/svg"
   xmlns="http://www.w3.org/2000/svg"
   xmlns:sodipodi="http://sodipodi.sourceforge.net/DTD/sodipodi-0.dtd"
   xmlns:inkscape="http://www.inkscape.org/namespaces/inkscape"
   version="1.1"
   id="svg2"
   xml:space="preserve"
   width="319.8732"
   height="107.09786"
   viewBox="0 0 319.8732 107.09786"
   sodipodi:docname="hsel-logo.svg"
   inkscape:version="0.92.3 (2405546, 2018-03-11)"><metadata
     id="metadata8"><rdf:RDF><cc:Work
         rdf:about=""><dc:format>image/svg+xml</dc:format><dc:type
           rdf:resource="http://purl.org/dc/dcmitype/StillImage" /><dc:title></dc:title></cc:Work></rdf:RDF></metadata><defs
     id="defs6"><clipPath
       clipPathUnits="userSpaceOnUse"
       id="clipPath18"><path
         d="M 0,0 H 595.275 V 557.008 H 0 Z"
         id="path16"
         inkscape:connector-curvature="0" /></clipPath><clipPath
       clipPathUnits="userSpaceOnUse"
       id="clipPath34"><path
         d="M 78.291,801.151 V 763.484 H 40.622 v -37.666 h 75.336 v 75.333 z"
         id="path32"
         inkscape:connector-curvature="0" /></clipPath><clipPath
       clipPathUnits="userSpaceOnUse"
       id="clipPath54"><path
         d="m 36,718.33 h 239.906 v 87.56 H 36 Z"
         id="path52"
         inkscape:connector-curvature="0" /></clipPath><clipPath
       clipPathUnits="userSpaceOnUse"
       id="clipPath94"><path
         d="M 36,768.223 H 73.667 V 805.89 H 36 Z"
         id="path92"
         inkscape:connector-curvature="0" /></clipPath><clipPath
       clipPathUnits="userSpaceOnUse"
       id="clipPath106"><path
         d="m 36,718.33 h 239.906 v 87.56 H 36 Z"
         id="path104"
         inkscape:connector-curvature="0" /></clipPath></defs><sodipodi:namedview
     pagecolor="#ffffff"
     bordercolor="#666666"
     borderopacity="1"
     objecttolerance="10"
     gridtolerance="10"
     guidetolerance="10"
     inkscape:pageopacity="0"
     inkscape:pageshadow="2"
     inkscape:window-width="1853"
     inkscape:window-height="1025"
     id="namedview4"
     showgrid="false"
     fit-margin-top="0"
     fit-margin-left="0"
     fit-margin-right="0"
     fit-margin-bottom="0"
     inkscape:zoom="1.189304"
     inkscape:cx="348.85068"
     inkscape:cy="-93.808626"
     inkscape:window-x="67"
     inkscape:window-y="27"
     inkscape:window-maximized="1"
     inkscape:current-layer="g10" /><g
     id="g10"
     inkscape:groupmode="layer"
     inkscape:label="HS_CD_Manual_2016_03"
     transform="matrix(1.3333333,0,0,-1.3333333,-47.999999,1074.52)"><g
       id="g24"
       transform="translate(78.2909,763.4854)"><path
         d="M 0,0 H -37.668 V -37.668 H 37.666 V 37.666 H 0 Z"
         style="fill:#89c6cf;fill-opacity:1;fill-rule:nonzero;stroke:none"
         id="path26"
         inkscape:connector-curvature="0" /></g><g
       id="g28"><g
         id="g30"
         clip-path="url(#clipPath34)"><g
           id="g36"
           transform="translate(35.6465,798.1254)"><path
             d="m 0,0 c 0.236,-0.204 0.472,-0.411 0.708,-0.622 0.039,0.006 0.078,0.011 0.116,0.017 C 0.563,-0.399 0.301,-0.198 0.04,-0.001 0.027,-0.001 0.013,0 0,0 m 3.168,-1.331 c 0.253,-0.216 0.504,-0.436 0.757,-0.66 0.055,0.012 0.109,0.023 0.164,0.035 -0.278,0.214 -0.555,0.423 -0.832,0.627 -0.03,0 -0.06,-0.001 -0.089,-0.002 m -1.56,-0.11 c 0.166,-0.153 0.331,-0.308 0.497,-0.465 0.152,-0.143 0.303,-0.287 0.453,-0.432 0.09,0.026 0.18,0.051 0.27,0.076 C 2.495,-1.973 2.162,-1.691 1.831,-1.417 1.757,-1.424 1.682,-1.432 1.608,-1.441 m 6.43,-1.112 c 0.159,-0.122 0.316,-0.246 0.474,-0.372 0.027,0.006 0.054,0.012 0.081,0.018 -0.185,0.121 -0.37,0.238 -0.555,0.354 M 6.309,-2.557 c 0.279,-0.236 0.555,-0.477 0.83,-0.722 0.078,0.023 0.156,0.045 0.234,0.067 C 7.324,-3.174 7.275,-3.137 7.226,-3.1 6.973,-2.91 6.721,-2.724 6.469,-2.543 6.416,-2.547 6.363,-2.552 6.309,-2.557 m -1.524,-0.21 c 0.339,-0.314 0.675,-0.634 1.007,-0.96 0.107,0.04 0.214,0.078 0.321,0.116 -0.268,0.233 -0.538,0.462 -0.809,0.686 -0.084,0.068 -0.167,0.136 -0.25,0.204 -0.09,-0.015 -0.179,-0.03 -0.269,-0.046 m 6.212,-0.696 c 0.191,-0.146 0.382,-0.294 0.572,-0.446 0.056,0.017 0.113,0.034 0.169,0.051 -0.217,0.139 -0.435,0.273 -0.654,0.402 -0.029,-0.002 -0.057,-0.005 -0.087,-0.007 M 3.32,-3.091 c 0.384,-0.386 0.763,-0.778 1.136,-1.176 0.13,0.057 0.26,0.113 0.389,0.167 -0.388,0.374 -0.78,0.74 -1.177,1.096 C 3.552,-3.032 3.436,-3.061 3.32,-3.091 m 12.357,-1.023 c 0.09,-0.061 0.181,-0.123 0.272,-0.185 0.024,0.008 0.047,0.015 0.07,0.023 -0.114,0.056 -0.228,0.11 -0.342,0.162 m -6.26,0.442 c 0.267,-0.228 0.533,-0.461 0.797,-0.699 0.1,0.038 0.199,0.075 0.299,0.111 C 10.23,-4.043 9.946,-3.833 9.66,-3.63 9.578,-3.644 9.499,-3.657 9.417,-3.672 m 4.567,-0.629 c 0.21,-0.16 0.421,-0.324 0.63,-0.492 0.085,0.035 0.169,0.068 0.254,0.102 -0.229,0.147 -0.458,0.289 -0.687,0.425 -0.066,-0.011 -0.131,-0.023 -0.197,-0.035 m -6.058,0.3 c 0.322,-0.302 0.641,-0.61 0.957,-0.925 0.125,0.057 0.249,0.112 0.373,0.166 C 8.927,-4.47 8.597,-4.189 8.263,-3.916 8.152,-3.943 8.037,-3.972 7.926,-4.001 m 4.535,-0.644 c 0.28,-0.24 0.559,-0.485 0.837,-0.737 0.118,0.058 0.235,0.113 0.353,0.168 -0.29,0.225 -0.582,0.443 -0.874,0.652 -0.106,-0.027 -0.211,-0.055 -0.316,-0.083 M 6.502,-4.436 C 6.865,-4.805 7.224,-5.181 7.58,-5.564 7.718,-5.492 7.856,-5.42 7.994,-5.351 7.63,-4.994 7.262,-4.645 6.891,-4.305 6.762,-4.347 6.63,-4.391 6.502,-4.436 m 4.505,-0.668 c 0.33,-0.313 0.658,-0.633 0.983,-0.961 0.142,0.079 0.282,0.156 0.423,0.231 -0.335,0.298 -0.673,0.588 -1.012,0.867 -0.131,-0.044 -0.263,-0.09 -0.394,-0.137 m -5.899,0.132 c 0.396,-0.435 0.786,-0.876 1.172,-1.323 0.154,0.092 0.308,0.182 0.461,0.27 -0.393,0.419 -0.79,0.831 -1.193,1.234 C 5.402,-4.849 5.255,-4.91 5.108,-4.972 m 4.502,-0.69 c 0.369,-0.381 0.734,-0.771 1.096,-1.167 0.153,0.096 0.304,0.189 0.456,0.282 -0.369,0.367 -0.741,0.724 -1.115,1.072 C 9.902,-5.535 9.755,-5.598 9.61,-5.662 M 8.26,-6.309 C 8.661,-6.755 9.056,-7.208 9.447,-7.669 9.605,-7.558 9.762,-7.45 9.92,-7.343 9.523,-6.911 9.124,-6.49 8.72,-6.077 8.566,-6.153 8.413,-6.23 8.26,-6.309 M 6.923,-7.053 c 0.425,-0.509 0.845,-1.025 1.259,-1.547 0.17,0.132 0.34,0.26 0.51,0.386 -0.418,0.492 -0.842,0.976 -1.27,1.45 C 7.255,-6.859 7.09,-6.955 6.923,-7.053 m 15.998,2.462 c 4.754,-2.539 9.967,-8.211 15.801,-14.557 9.915,-10.785 21.153,-23.009 33.441,-23.099 2.485,-0.038 4.924,0.544 7.296,1.588 0.052,0.089 0.105,0.178 0.158,0.268 -1.795,-0.551 -3.593,-0.816 -5.374,-0.805 -12.246,0.101 -23.69,11.873 -33.786,22.258 -6.732,6.924 -12.663,13.024 -17.536,14.347 m -2.341,0.019 c 4.896,-2.858 10.053,-8.79 15.848,-15.458 9.825,-11.303 20.961,-24.114 33.647,-24.196 2.931,-0.026 5.765,0.737 8.502,2.115 0.018,0.029 0.036,0.059 0.055,0.087 -2.155,-0.782 -4.308,-1.169 -6.476,-1.15 -12.691,0.093 -24.073,12.474 -34.116,23.399 -6.336,6.891 -12.356,13.439 -17.46,15.203 m -2.129,-0.033 c 5.094,-3.332 10.322,-9.692 15.801,-16.358 9.696,-11.797 20.686,-25.169 33.736,-25.242 3.216,-0.017 6.326,0.873 9.294,2.48 -2.398,-0.966 -4.791,-1.43 -7.213,-1.429 C 56.964,-45.069 45.682,-32.09 35.728,-20.638 29.612,-13.601 23.802,-6.916 18.569,-4.583 18.53,-4.59 18.49,-4.598 18.451,-4.605 m -1.553,-0.38 c 5.069,-3.832 10.064,-10.256 15.296,-16.985 9.531,-12.257 20.334,-26.15 33.706,-26.214 3.288,-0.028 6.44,0.884 9.437,2.505 -2.436,-0.981 -4.877,-1.461 -7.354,-1.454 -13.485,0.076 -24.622,13.626 -34.448,25.581 -5.717,6.956 -11.157,13.575 -16.354,16.648 -0.096,-0.027 -0.188,-0.053 -0.283,-0.081 m -1.456,-0.494 c 5.027,-4.3 9.806,-10.792 14.806,-17.584 9.789,-13.297 19.912,-27.047 33.564,-27.1 h 0.067 c 3.333,0 6.506,0.906 9.515,2.532 -2.474,-0.997 -4.977,-1.465 -7.498,-1.48 -13.823,0.065 -24.773,14.148 -34.434,26.572 -5.378,6.916 -10.504,13.508 -15.645,17.2 -0.125,-0.046 -0.25,-0.092 -0.375,-0.14 m -1.396,-0.597 c 4.978,-4.731 9.563,-11.304 14.356,-18.174 9.551,-13.691 19.428,-27.849 33.322,-27.892 0.018,0 0.037,0 0.055,0 3.403,0 6.627,0.916 9.672,2.557 -2.512,-1.011 -5.074,-1.492 -7.642,-1.505 -14.119,0.055 -24.383,13.996 -34.308,27.478 -5.09,6.914 -9.948,13.513 -15.023,17.733 -0.144,-0.064 -0.288,-0.13 -0.432,-0.197 m -1.365,-0.697 c 5.008,-5.23 9.541,-12.08 13.96,-18.758 9.29,-14.04 18.896,-28.557 32.997,-28.589 h 0.041 c 3.473,0 6.746,0.923 9.826,2.582 -2.53,-1.02 -5.108,-1.531 -7.726,-1.531 H 61.722 C 47.345,-53.025 37.328,-38.666 27.641,-24.78 22.796,-17.836 18.165,-11.197 13.16,-6.516 13,-6.599 12.841,-6.685 12.681,-6.773 m -1.324,-0.781 c 4.961,-5.609 9.333,-12.569 13.598,-19.357 9.423,-14.999 18.323,-29.167 32.594,-29.188 h 0.028 c 3.545,0 6.871,0.933 9.988,2.609 -2.588,-1.043 -5.23,-1.581 -7.93,-1.557 -14.597,0.033 -24.343,14.761 -33.767,29.004 -4.443,6.714 -9.002,13.604 -14.015,18.794 -0.165,-0.099 -0.331,-0.201 -0.496,-0.305 m -1.289,-0.857 c 4.931,-5.975 9.169,-13.077 13.305,-20.008 9.099,-15.247 17.693,-29.649 32.089,-29.659 h 0.013 c 3.551,0 6.993,0.904 10.31,2.701 -2.668,-1.098 -5.407,-1.649 -8.208,-1.649 h -0.029 c -14.783,0.022 -23.816,14.4 -33.378,29.622 -4.27,6.797 -8.649,13.767 -13.599,19.339 -0.169,-0.114 -0.335,-0.228 -0.503,-0.346 m -1.29,-0.951 c 4.87,-6.307 8.969,-13.526 12.971,-20.577 8.792,-15.489 17.097,-30.118 31.625,-30.118 3.619,0 7.112,0.912 10.466,2.726 -2.711,-1.115 -5.501,-1.675 -8.365,-1.675 H 55.461 C 40.539,-58.994 31.814,-44.373 22.577,-28.894 18.449,-21.977 14.22,-14.889 9.315,-8.956 9.136,-9.089 8.956,-9.225 8.778,-9.362 m 44.596,-51.622 c -15.068,0 -23.502,14.858 -32.431,30.587 -3.983,7.017 -8.062,14.201 -12.892,20.458 -16.603,-13.514 -29.527,-46.757 -29.687,-47.175 l -0.866,0.332 c 0.051,0.132 5.126,13.268 12.93,26.326 5.784,9.677 11.475,16.784 17.026,21.281 -0.436,0.551 -0.879,1.094 -1.328,1.629 -18.11,-11.588 -31.536,-47.93 -31.699,-48.379 l -0.871,0.318 c 0.05,0.138 5.133,14.002 13.195,27.297 6.277,10.354 12.541,17.542 18.731,21.519 -0.415,0.48 -0.837,0.954 -1.264,1.418 -19.699,-9.362 -33.563,-48.882 -33.729,-49.362 l -0.876,0.302 c 0.05,0.146 5.134,14.756 13.447,28.299 6.675,10.872 13.604,18.087 20.509,21.456 C 3.153,-4.24 2.731,-3.809 2.303,-3.386 1.386,-3.678 0.47,-4.04 -0.444,-4.473 -20.245,-13.844 -33.318,-53.151 -33.448,-53.547 l -0.881,0.289 c 0.131,0.4 13.331,40.083 33.489,49.623 0.795,0.377 1.592,0.703 2.391,0.977 C 1.524,-2.632 1.496,-2.605 1.468,-2.579 1.119,-2.25 0.77,-1.927 0.422,-1.612 -1.099,-1.88 -2.614,-2.337 -4.12,-2.981 -24.496,-11.697 -37.259,-51.953 -37.386,-52.358 l -0.885,0.276 c 0.522,1.673 13.02,41.071 33.786,49.954 1.338,0.572 2.684,1.003 4.034,1.292 -0.323,0.281 -0.646,0.557 -0.968,0.825 -2.159,-0.097 -4.301,-0.561 -6.42,-1.392 -20.885,-8.19 -33.361,-49.353 -33.485,-49.768 l -0.888,0.265 c 0.51,1.711 12.732,42.012 34.035,50.366 1.885,0.74 3.788,1.202 5.703,1.387 -0.248,0.197 -0.495,0.389 -0.743,0.578 -2.826,0.217 -5.616,-0.172 -8.359,-1.17 -21.346,-7.768 -33.565,-49.816 -33.686,-50.24 l -0.892,0.255 c 0.5,1.749 12.474,42.927 34.261,50.856 2.415,0.879 4.865,1.314 7.333,1.288 -0.138,0.098 -0.277,0.195 -0.415,0.291 -3.514,0.669 -6.967,0.43 -10.342,-0.721 -21.77,-7.425 -33.765,-50.349 -33.883,-50.782 l -0.895,0.245 c 0.03,0.109 3.059,11.054 8.774,22.782 5.297,10.869 14.056,24.658 25.704,28.632 2.824,0.963 5.699,1.318 8.609,1.066 -4.114,1.156 -8.139,1.108 -12.047,-0.153 -22.173,-7.149 -33.967,-50.944 -34.084,-51.386 l -0.896,0.237 c 0.029,0.111 3.006,11.279 8.721,23.194 5.298,11.043 14.104,25.009 25.973,28.838 2.945,0.949 5.949,1.243 8.997,0.884 -4.245,1.3 -8.386,1.34 -12.397,0.114 -22.565,-6.901 -34.222,-51.63 -34.337,-52.081 l -0.899,0.229 c 0.03,0.114 2.972,11.522 8.703,23.642 5.312,11.235 14.18,25.402 26.262,29.097 2.911,0.889 5.882,1.143 8.902,0.765 -4.253,1.31 -8.393,1.381 -12.394,0.204 -22.939,-6.749 -34.4,-52.292 -34.513,-52.752 l -0.9,0.223 c 0.028,0.115 2.92,11.731 8.649,24.038 5.309,11.408 14.218,25.766 26.502,29.38 5.963,1.754 12.195,0.866 18.618,-2.638 1.167,-0.455 2.34,-1.001 3.519,-1.637 C -3.602,3.739 -2.571,3.281 -1.536,2.753 -0.47,2.39 0.6,1.948 1.674,1.428 2.731,1.104 3.79,0.701 4.852,0.218 c 1.052,-0.28 2.105,-0.641 3.16,-1.084 1.04,-0.228 2.08,-0.539 3.12,-0.933 1.034,-0.17 2.067,-0.425 3.097,-0.765 0.979,-0.095 1.953,-0.271 2.924,-0.53 0.021,-0.005 0.042,-0.011 0.064,-0.017 0.595,-0.013 1.188,-0.057 1.781,-0.133 0.352,-0.044 0.706,-0.113 1.063,-0.203 0.257,0.021 0.513,0.036 0.769,0.044 0.074,0.003 0.149,0.004 0.224,0.004 5.589,0 12.306,-6.909 20.067,-14.893 9.97,-10.255 21.271,-21.879 33.13,-21.976 2.054,-0.022 4.083,0.371 6.077,1.113 5.235,9.277 9.905,21.576 13.906,36.628 7.592,28.568 10.157,57.506 10.182,57.795 l 0.924,-0.08 c -0.025,-0.29 -2.597,-29.308 -10.21,-57.953 -3.285,-12.362 -7.025,-22.883 -11.161,-31.418 4.549,8.694 8.692,19.693 12.354,32.817 7.86,28.17 10.803,56.708 10.832,56.993 l 0.922,-0.093 c -0.029,-0.286 -2.98,-28.904 -10.862,-57.149 -3.159,-11.322 -6.678,-21.078 -10.509,-29.153 4.86,9.476 8.731,20.401 11.702,30.553 8.13,27.772 11.453,55.92 11.485,56.202 l 0.921,-0.107 c -0.032,-0.282 -3.363,-28.499 -11.513,-56.346 -3.182,-10.872 -6.675,-20.279 -10.435,-28.115 4.766,9.203 8.628,19.737 11.634,29.537 8.396,27.374 12.096,55.113 12.132,55.39 l 0.92,-0.121 C 113.515,55.947 109.805,28.131 101.386,0.684 98.193,-9.727 94.735,-18.775 91.053,-26.363 c 4.664,8.918 8.505,19.043 11.535,28.48 8.664,26.976 12.743,54.315 12.783,54.588 l 0.917,-0.135 c -0.04,-0.274 -4.13,-27.688 -12.817,-54.736 -3.195,-9.95 -6.614,-18.637 -10.215,-25.972 4.559,8.627 8.373,18.345 11.421,27.417 8.932,26.578 13.389,53.517 13.433,53.786 l 0.915,-0.149 c -0.044,-0.27 -4.513,-27.284 -13.468,-53.932 -3.189,-9.49 -6.562,-17.812 -10.082,-24.889 4.453,8.33 8.233,17.64 11.291,26.345 9.199,26.18 14.036,52.719 14.083,52.984 l 0.913,-0.164 c -0.048,-0.265 -4.897,-26.878 -14.121,-53.127 -3.167,-9.015 -6.482,-16.961 -9.912,-23.767 4.335,8.017 8.066,16.902 11.123,25.226 9.468,25.782 14.685,51.931 14.737,52.192 l 0.91,-0.179 c -0.053,-0.262 -5.281,-26.473 -14.773,-52.323 -3.136,-8.541 -6.386,-16.106 -9.722,-22.635 4.217,7.703 7.893,16.168 10.941,24.116 9.735,25.385 15.327,51.125 15.383,51.382 l 0.906,-0.195 c -0.055,-0.258 -5.663,-26.068 -15.423,-51.519 -3.089,-8.054 -6.263,-15.227 -9.496,-21.466 4.086,7.368 7.692,15.398 10.716,22.952 10.003,24.986 15.977,50.335 16.036,50.589 l 0.903,-0.212 c -0.059,-0.253 -6.047,-25.662 -16.075,-50.713 -2.789,-6.967 -5.601,-13.225 -8.43,-18.767 15.821,29.023 26.181,69.417 26.342,70.052 l 0.899,-0.227 c -0.063,-0.25 -6.43,-25.258 -16.726,-49.91 -8.41,-20.135 -16.879,-34.237 -25.318,-42.201 -0.89,-0.945 -1.782,-1.822 -2.673,-2.629 -0.467,-0.479 -0.936,-0.94 -1.404,-1.382 -0.663,-0.705 -1.328,-1.372 -1.995,-2.001 -0.658,-0.702 -1.32,-1.367 -1.984,-1.992 -0.656,-0.701 -1.315,-1.363 -1.977,-1.987 -0.653,-0.699 -1.31,-1.361 -1.972,-1.984 -0.651,-0.698 -1.306,-1.358 -1.967,-1.98 -0.646,-0.694 -1.299,-1.351 -1.956,-1.97 -0.647,-0.696 -1.302,-1.356 -1.961,-1.977 -5.931,-6.385 -12.428,-9.61 -19.399,-9.61"
             style="fill:#ffffff;fill-opacity:1;fill-rule:nonzero;stroke:none"
             id="path38"
             inkscape:connector-curvature="0" /></g></g></g><g
       id="g40"
       transform="translate(134.9471,725.947)"><path
         d="M 0,0 H -9.536 V 18.781 H 0.644 L -0.233,16.616 H -6.757 V 10.59 h 6.143 L -1.462,8.454 H -6.757 V 2.253 h 7.928 z"
         style="fill:#575756;fill-opacity:1;fill-rule:nonzero;stroke:none"
         id="path42"
         inkscape:connector-curvature="0" /></g><g
       id="g44"
       transform="translate(139.0425,725.947)"><path
         d="m 0,0 v 17.142 l -1.17,1.639 h 3.452 l 6.582,-9.273 7.079,9.273 h 1.58 V 0 H 14.744 V 13.837 L 8.396,5.383 2.34,13.866 V 0 Z"
         style="fill:#575756;fill-opacity:1;fill-rule:nonzero;stroke:none"
         id="path46"
         inkscape:connector-curvature="0" /></g><g
       id="g48"><g
         id="g50"
         clip-path="url(#clipPath54)"><g
           id="g56"
           transform="translate(172.3033,738.3356)"><path
             d="m 0,0 c -0.332,0.946 -0.81,1.756 -1.433,2.428 -0.625,0.673 -1.395,1.2 -2.311,1.58 -0.917,0.38 -1.97,0.57 -3.16,0.57 h -2.135 v -14.772 c 0.292,-0.079 0.707,-0.166 1.243,-0.264 0.537,-0.098 1.068,-0.146 1.594,-0.146 1.073,0 2.024,0.209 2.853,0.629 0.828,0.419 1.525,0.98 2.091,1.682 0.565,0.702 0.999,1.502 1.302,2.399 0.302,0.896 0.453,1.823 0.453,2.779 C 0.497,-1.984 0.332,-0.946 0,0 m 2.794,-7.021 c -0.458,-1.18 -1.107,-2.198 -1.946,-3.057 -0.838,-0.858 -1.857,-1.52 -3.057,-1.988 -1.199,-0.468 -2.53,-0.703 -3.993,-0.703 -1.131,0 -2.174,0.078 -3.13,0.235 -0.955,0.155 -1.784,0.331 -2.486,0.526 V 6.099 c 0.76,0.156 1.589,0.293 2.486,0.41 0.897,0.117 1.95,0.176 3.16,0.176 1.501,0 2.852,-0.23 4.051,-0.688 1.2,-0.458 2.213,-1.112 3.042,-1.96 0.83,-0.848 1.463,-1.872 1.902,-3.072 0.439,-1.199 0.658,-2.549 0.658,-4.051 0,-1.444 -0.229,-2.755 -0.687,-3.935"
             style="fill:#575756;fill-opacity:1;fill-rule:nonzero;stroke:none"
             id="path58"
             inkscape:connector-curvature="0" /></g><g
           id="g60"
           transform="translate(187.9245,725.947)"><path
             d="M 0,0 H -9.537 V 18.781 H 0.644 L -0.235,16.616 H -6.757 V 10.59 h 6.143 L -1.463,8.454 H -6.757 V 2.253 H 1.17 Z"
             style="fill:#575756;fill-opacity:1;fill-rule:nonzero;stroke:none"
             id="path62"
             inkscape:connector-curvature="0" /></g><g
           id="g64"
           transform="translate(205.3295,725.947)"><path
             d="M 0,0 -10.736,13.486 V 0 h -2.34 v 16.441 l -1.872,2.34 h 3.51 L -1.082,5.821 v 12.96 H 1.287 V 0 Z"
             style="fill:#575756;fill-opacity:1;fill-rule:nonzero;stroke:none"
             id="path66"
             inkscape:connector-curvature="0" /></g><g
           id="g68"
           transform="translate(230.9542,725.947)"><path
             d="m 0,0 h -9.127 v 18.781 h 2.779 V 2.253 H 1.17 Z"
             style="fill:#575756;fill-opacity:1;fill-rule:nonzero;stroke:none"
             id="path70"
             inkscape:connector-curvature="0" /></g><g
           id="g72"
           transform="translate(243.357,725.947)"><path
             d="M 0,0 H -9.537 V 18.781 H 0.644 L -0.235,16.616 H -6.757 V 10.59 h 6.143 L -1.463,8.454 H -6.757 V 2.253 H 1.17 Z"
             style="fill:#575756;fill-opacity:1;fill-rule:nonzero;stroke:none"
             id="path74"
             inkscape:connector-curvature="0" /></g><g
           id="g76"
           transform="translate(257.5443,725.947)"><path
             d="M 0,0 H -9.536 V 18.781 H 0.644 L -0.234,16.616 H -6.757 V 10.59 h 6.143 L -1.463,8.454 H -6.757 V 2.253 H 1.17 Z"
             style="fill:#575756;fill-opacity:1;fill-rule:nonzero;stroke:none"
             id="path78"
             inkscape:connector-curvature="0" /></g><g
           id="g80"
           transform="translate(269.245,742.0947)"><path
             d="m 0,0 c -0.761,0.546 -1.931,0.819 -3.51,0.819 h -1.638 v -7.313 h 3.802 c 0.254,0.136 0.522,0.317 0.805,0.541 0.282,0.224 0.551,0.497 0.804,0.819 0.254,0.322 0.464,0.688 0.629,1.097 0.166,0.41 0.249,0.868 0.249,1.375 C 1.141,-1.433 0.761,-0.546 0,0 m 3.101,-16.148 -5.47,7.606 -2.779,0.03 v -7.636 H -7.927 V 2.34 c 0.741,0.156 1.501,0.293 2.282,0.41 0.779,0.117 1.754,0.176 2.925,0.176 0.955,0 1.838,-0.113 2.647,-0.337 C 0.737,2.365 1.438,2.034 2.034,1.594 2.628,1.156 3.096,0.604 3.437,-0.059 3.779,-0.721 3.95,-1.502 3.95,-2.399 3.95,-3.14 3.818,-3.803 3.554,-4.387 3.291,-4.973 2.97,-5.485 2.589,-5.924 2.209,-6.363 1.8,-6.728 1.361,-7.02 0.922,-7.313 0.527,-7.528 0.176,-7.664 l 6.436,-8.484 z"
             style="fill:#575756;fill-opacity:1;fill-rule:nonzero;stroke:none"
             id="path82"
             inkscape:connector-curvature="0" /></g><path
           d="m 211.977,733.115 h 4.553 v 4.552 h -4.553 z"
           style="fill:#575756;fill-opacity:1;fill-rule:nonzero;stroke:none"
           id="path84"
           inkscape:connector-curvature="0" /><path
           d="M 36,768.223 H 73.667 V 805.89 H 36 Z"
           style="fill:#0069ae;fill-opacity:1;fill-rule:nonzero;stroke:none"
           id="path86"
           inkscape:connector-curvature="0" /></g></g><g
       id="g88"><g
         id="g90"
         clip-path="url(#clipPath94)"><g
           id="g96"
           transform="translate(34.9456,798.8353)"><path
             d="m 0,0 c 0.235,-0.204 0.471,-0.41 0.706,-0.621 0.039,0.006 0.078,0.012 0.117,0.018 -0.261,0.205 -0.522,0.406 -0.782,0.602 -0.014,0 -0.027,0 -0.041,0.001 m 3.159,-1.327 c 0.251,-0.216 0.503,-0.435 0.755,-0.658 0.054,0.011 0.109,0.023 0.163,0.034 -0.277,0.214 -0.553,0.423 -0.829,0.626 -0.03,0 -0.06,-0.001 -0.089,-0.002 M 1.603,-1.436 C 1.768,-1.589 1.934,-1.744 2.099,-1.9 2.25,-2.043 2.4,-2.187 2.55,-2.332 2.64,-2.306 2.73,-2.28 2.82,-2.255 2.488,-1.967 2.157,-1.686 1.826,-1.413 1.752,-1.42 1.677,-1.428 1.603,-1.436 m 6.406,-1.106 c 0.16,-0.123 0.319,-0.247 0.478,-0.374 0.028,0.006 0.054,0.012 0.082,0.018 -0.187,0.121 -0.373,0.24 -0.56,0.356 M 6.29,-2.55 c 0.278,-0.235 0.554,-0.475 0.828,-0.72 0.078,0.023 0.156,0.046 0.234,0.068 C 7.303,-3.165 7.254,-3.128 7.205,-3.091 6.953,-2.901 6.702,-2.716 6.45,-2.535 6.397,-2.539 6.344,-2.545 6.29,-2.55 M 4.771,-2.759 c 0.337,-0.313 0.673,-0.632 1.004,-0.957 0.107,0.039 0.214,0.078 0.321,0.115 C 5.829,-3.368 5.559,-3.14 5.289,-2.917 5.206,-2.848 5.122,-2.78 5.039,-2.713 4.95,-2.727 4.86,-2.743 4.771,-2.759 m 6.194,-0.694 c 0.19,-0.145 0.381,-0.293 0.57,-0.444 0.055,0.017 0.113,0.033 0.168,0.05 -0.217,0.139 -0.434,0.272 -0.652,0.401 -0.029,-0.002 -0.057,-0.004 -0.086,-0.007 m -7.654,0.371 c 0.382,-0.384 0.76,-0.776 1.132,-1.172 0.129,0.056 0.259,0.112 0.388,0.167 C 4.445,-3.715 4.053,-3.35 3.657,-2.994 3.542,-3.022 3.426,-3.052 3.311,-3.082 m 12.319,-1.02 c 0.091,-0.061 0.181,-0.122 0.272,-0.185 0.024,0.008 0.047,0.016 0.07,0.023 -0.114,0.056 -0.228,0.11 -0.342,0.162 m -6.241,0.441 c 0.266,-0.227 0.532,-0.46 0.795,-0.697 0.099,0.038 0.199,0.075 0.299,0.111 -0.282,0.216 -0.566,0.425 -0.85,0.628 C 9.551,-3.633 9.471,-3.646 9.389,-3.661 m 4.553,-0.627 c 0.21,-0.16 0.42,-0.324 0.629,-0.491 0.084,0.034 0.17,0.068 0.254,0.101 -0.229,0.148 -0.457,0.289 -0.685,0.425 -0.066,-0.011 -0.132,-0.023 -0.198,-0.035 m -6.039,0.299 c 0.321,-0.302 0.638,-0.609 0.954,-0.922 0.124,0.057 0.248,0.112 0.373,0.165 -0.329,0.289 -0.659,0.57 -0.991,0.842 C 8.128,-3.931 8.013,-3.96 7.903,-3.989 m 4.521,-0.642 c 0.279,-0.239 0.558,-0.484 0.835,-0.735 0.118,0.057 0.235,0.113 0.352,0.167 -0.29,0.225 -0.581,0.442 -0.872,0.651 -0.106,-0.027 -0.21,-0.055 -0.315,-0.083 m -5.941,0.209 c 0.362,-0.369 0.72,-0.744 1.075,-1.126 0.138,0.073 0.275,0.143 0.413,0.213 -0.363,0.356 -0.73,0.704 -1.1,1.042 -0.129,-0.041 -0.26,-0.085 -0.388,-0.129 m 4.491,-0.666 c 0.329,-0.313 0.656,-0.632 0.981,-0.959 0.141,0.079 0.281,0.156 0.422,0.231 -0.335,0.297 -0.671,0.586 -1.009,0.864 -0.133,-0.044 -0.262,-0.089 -0.394,-0.136 m -5.881,0.131 c 0.395,-0.434 0.784,-0.874 1.168,-1.32 0.154,0.092 0.308,0.182 0.461,0.27 C 6.33,-5.589 5.934,-5.178 5.533,-4.776 5.385,-4.835 5.24,-4.895 5.093,-4.957 m 4.488,-0.688 c 0.368,-0.38 0.733,-0.768 1.094,-1.164 0.152,0.095 0.303,0.189 0.455,0.281 -0.368,0.366 -0.739,0.723 -1.113,1.07 C 9.872,-5.518 9.726,-5.581 9.581,-5.645 M 8.235,-6.29 c 0.4,-0.444 0.794,-0.897 1.184,-1.356 0.158,0.11 0.315,0.218 0.472,0.324 C 9.496,-6.891 9.097,-6.469 8.694,-6.058 8.542,-6.133 8.387,-6.211 8.235,-6.29 M 6.902,-7.032 c 0.425,-0.507 0.843,-1.022 1.256,-1.543 0.17,0.131 0.34,0.26 0.509,0.386 -0.417,0.491 -0.84,0.973 -1.268,1.446 -0.166,-0.094 -0.331,-0.19 -0.497,-0.289 m 15.952,2.454 c 4.738,-2.532 9.937,-8.186 15.753,-14.513 9.886,-10.753 21.09,-22.94 33.341,-23.03 2.5,-0.027 4.909,0.542 7.274,1.583 0.053,0.089 0.105,0.179 0.158,0.268 -1.791,-0.55 -3.59,-0.816 -5.359,-0.802 -12.209,0.1 -23.618,11.836 -33.684,22.19 -6.712,6.903 -12.625,12.985 -17.483,14.304 m -2.336,0.02 c 4.882,-2.849 10.023,-8.764 15.802,-15.412 9.795,-11.27 20.897,-24.043 33.546,-24.124 0.034,0 0.07,0 0.104,0 2.883,0 5.676,0.75 8.374,2.109 0.018,0.03 0.036,0.058 0.054,0.088 -2.149,-0.781 -4.305,-1.169 -6.457,-1.148 -12.652,0.093 -24.001,12.437 -34.014,23.329 -6.317,6.871 -12.32,13.4 -17.409,15.158 m -2.122,-0.034 c 5.079,-3.321 10.291,-9.662 15.754,-16.309 9.667,-11.762 20.625,-25.093 33.635,-25.166 3.209,-0.006 6.313,0.871 9.273,2.476 -2.393,-0.966 -4.808,-1.444 -7.198,-1.427 -13.066,0.084 -24.314,13.024 -34.238,24.441 -6.097,7.016 -11.89,13.681 -17.108,16.007 -0.039,-0.007 -0.079,-0.014 -0.118,-0.022 M 16.848,-4.97 c 5.054,-3.821 10.034,-10.226 15.251,-16.935 9.502,-12.221 20.273,-26.072 33.605,-26.135 h 0.079 c 3.254,0 6.366,0.894 9.333,2.5 -2.43,-0.98 -4.861,-1.479 -7.336,-1.451 -13.444,0.075 -24.547,13.584 -34.344,25.503 -5.7,6.936 -11.124,13.535 -16.306,16.598 -0.095,-0.026 -0.187,-0.052 -0.282,-0.08 m -1.452,-0.493 c 5.012,-4.287 9.777,-10.76 14.762,-17.531 9.76,-13.257 19.852,-26.966 33.464,-27.019 3.332,0 6.533,0.892 9.554,2.524 -2.467,-0.993 -4.956,-1.507 -7.477,-1.475 -13.781,0.065 -24.698,14.105 -34.33,26.492 -5.362,6.896 -10.472,13.468 -15.598,17.149 -0.125,-0.045 -0.25,-0.092 -0.375,-0.14 m -1.391,-0.595 c 4.963,-4.717 9.534,-11.271 14.312,-18.119 9.523,-13.651 19.37,-27.766 33.223,-27.809 3.405,0.006 6.647,0.904 9.699,2.551 -2.481,-1 -5,-1.502 -7.549,-1.502 h -0.072 c -14.077,0.054 -24.309,13.954 -34.204,27.395 -5.075,6.893 -9.919,13.473 -14.979,17.681 -0.143,-0.064 -0.287,-0.13 -0.43,-0.197 m -1.361,-0.695 c 4.993,-5.214 9.513,-12.045 13.918,-18.703 9.262,-13.997 18.839,-28.471 32.897,-28.503 3.466,-0.019 6.76,0.916 9.845,2.577 -2.544,-1.025 -5.134,-1.555 -7.767,-1.528 -14.333,0.044 -24.32,14.36 -33.978,28.204 -4.83,6.923 -9.447,13.543 -14.437,18.21 -0.16,-0.083 -0.319,-0.169 -0.478,-0.257 m -1.32,-0.778 c 4.946,-5.593 9.305,-12.531 13.556,-19.3 9.395,-14.954 18.269,-29.08 32.498,-29.101 h 0.027 c 3.535,0 6.852,0.93 9.961,2.603 -2.567,-1.035 -5.191,-1.554 -7.866,-1.554 h -0.043 c -14.553,0.033 -24.269,14.717 -33.665,28.917 -4.43,6.694 -8.975,13.564 -13.973,18.738 -0.167,-0.099 -0.33,-0.199 -0.495,-0.303 m -1.286,-0.855 c 4.917,-5.957 9.142,-13.038 13.266,-19.948 9.071,-15.202 17.64,-29.56 31.993,-29.571 h 0.014 c 3.605,0 6.975,0.941 10.12,2.63 -2.611,-1.052 -5.288,-1.581 -8.026,-1.581 h -0.029 c -14.739,0.022 -23.744,14.357 -33.278,29.534 -4.257,6.777 -8.622,13.726 -13.558,19.281 -0.168,-0.113 -0.334,-0.227 -0.502,-0.345 M 8.752,-9.335 c 4.856,-6.288 8.942,-13.485 12.933,-20.515 8.765,-15.442 17.045,-30.028 31.53,-30.028 3.61,0 7.094,0.91 10.44,2.721 -2.704,-1.113 -5.488,-1.672 -8.344,-1.672 H 55.296 C 40.419,-58.818 31.72,-44.241 22.51,-28.808 18.395,-21.911 14.178,-14.845 9.287,-8.929 9.109,-9.061 8.929,-9.197 8.752,-9.335 m 44.463,-51.467 c -15.023,0 -23.432,14.813 -32.334,30.496 -3.972,6.995 -8.038,14.158 -12.853,20.396 -16.554,-13.473 -29.44,-46.617 -29.599,-47.033 l -0.863,0.331 c 0.05,0.13 5.11,13.228 12.891,26.247 5.767,9.648 11.441,16.734 16.975,21.217 -0.435,0.549 -0.877,1.092 -1.325,1.626 -18.059,-11.551 -31.441,-47.788 -31.604,-48.236 l -0.868,0.316 c 0.05,0.138 5.118,13.96 13.156,27.217 6.258,10.322 12.503,17.489 18.675,21.455 -0.414,0.478 -0.834,0.95 -1.26,1.413 -19.641,-9.334 -33.463,-48.736 -33.628,-49.215 l -0.873,0.302 c 0.05,0.145 5.118,14.711 13.407,28.214 6.654,10.839 13.563,18.033 20.447,21.392 C 3.144,-4.228 2.723,-3.797 2.297,-3.376 1.382,-3.667 0.47,-4.028 -0.441,-4.459 -20.181,-13.8 -33.218,-52.992 -33.348,-53.386 l -0.878,0.287 c 0.131,0.399 13.291,39.964 33.389,49.475 0.793,0.375 1.588,0.7 2.384,0.974 -0.028,0.026 -0.055,0.052 -0.082,0.078 -0.349,0.329 -0.697,0.651 -1.044,0.965 -1.517,-0.268 -3.026,-0.723 -4.527,-1.365 -20.313,-8.687 -33.041,-48.826 -33.168,-49.231 l -0.882,0.276 c 0.521,1.667 12.981,40.948 33.685,49.805 1.335,0.57 2.676,1 4.021,1.288 -0.321,0.281 -0.643,0.555 -0.964,0.823 -2.153,-0.097 -4.289,-0.56 -6.401,-1.388 -20.823,-8.166 -33.261,-49.206 -33.385,-49.62 l -0.885,0.264 c 0.508,1.707 12.694,41.887 33.932,50.216 1.88,0.738 3.778,1.198 5.687,1.383 C -2.714,1.04 -2.96,1.232 -3.207,1.421 -6.024,1.637 -8.806,1.25 -11.541,0.254 -32.824,-7.491 -45.006,-49.412 -45.126,-49.835 l -0.889,0.254 c 0.498,1.743 12.436,42.799 34.158,50.703 2.407,0.876 4.837,1.314 7.311,1.285 -0.139,0.098 -0.276,0.194 -0.414,0.29 -3.503,0.666 -6.947,0.428 -10.311,-0.719 -21.708,-7.405 -33.664,-50.198 -33.782,-50.63 l -0.891,0.244 c 0.03,0.109 3.049,11.021 8.748,22.714 5.28,10.836 14.013,24.585 25.626,28.546 2.816,0.961 5.682,1.314 8.584,1.063 -4.102,1.152 -8.116,1.105 -12.013,-0.152 -22.11,-7.131 -33.865,-50.792 -33.981,-51.232 l -0.894,0.236 c 0.03,0.111 2.998,11.245 8.696,23.125 5.282,11.009 14.062,24.934 25.896,28.75 2.936,0.947 5.931,1.239 8.971,0.882 -4.232,1.296 -8.361,1.337 -12.36,0.114 -22.495,-6.878 -34.121,-51.476 -34.236,-51.925 l -0.895,0.228 c 0.028,0.114 2.962,11.487 8.676,23.572 5.296,11.2 14.137,25.325 26.183,29.009 2.903,0.887 5.864,1.141 8.878,0.762 -4.241,1.307 -8.369,1.378 -12.359,0.204 -22.867,-6.726 -34.298,-52.135 -34.411,-52.593 l -0.897,0.221 c 0.029,0.115 2.912,11.696 8.623,23.967 5.294,11.374 14.176,25.688 26.424,29.292 5.945,1.749 12.157,0.863 18.562,-2.631 C -6.96,5.29 -5.791,4.747 -4.616,4.112 -3.592,3.728 -2.564,3.272 -1.531,2.745 -0.469,2.383 0.598,1.943 1.668,1.424 2.723,1.101 3.781,0.698 4.842,0.215 c 1.047,-0.279 2.094,-0.638 3.144,-1.078 1.038,-0.228 2.076,-0.538 3.114,-0.931 1.031,-0.169 2.06,-0.423 3.087,-0.762 0.975,-0.095 1.947,-0.271 2.915,-0.529 0.021,-0.005 0.043,-0.011 0.064,-0.017 0.593,-0.013 1.185,-0.057 1.775,-0.132 0.352,-0.045 0.706,-0.113 1.062,-0.203 0.256,0.021 0.51,0.035 0.764,0.044 5.631,0.198 12.39,-6.778 20.232,-14.845 9.94,-10.224 21.206,-21.813 33.03,-21.911 2.042,-0.02 4.072,0.372 6.06,1.111 5.218,9.247 9.873,21.506 13.861,36.508 7.571,28.482 10.13,57.344 10.154,57.633 l 0.921,-0.08 C 105,54.734 102.436,25.802 94.846,-2.757 91.725,-14.501 88.192,-24.58 84.299,-32.865 c 4.944,9.721 8.811,21.02 11.736,31.502 7.837,28.086 10.771,56.539 10.8,56.824 l 0.919,-0.093 c -0.029,-0.285 -2.971,-28.818 -10.829,-56.979 -3.15,-11.29 -6.66,-21.019 -10.48,-29.069 4.846,9.447 8.706,20.343 11.67,30.465 8.104,27.689 11.418,55.754 11.45,56.034 l 0.918,-0.107 C 110.451,55.431 107.13,27.299 99.004,-0.464 95.832,-11.303 92.35,-20.681 88.602,-28.494 c 4.75,9.174 8.599,19.669 11.595,29.437 8.372,27.292 12.063,54.958 12.099,55.234 l 0.916,-0.12 C 113.176,55.78 109.476,28.047 101.083,0.682 97.898,-9.704 94.447,-18.73 90.774,-26.298 c 4.652,8.892 8.483,18.989 11.506,28.4 8.638,26.895 12.707,54.161 12.747,54.434 l 0.914,-0.135 c -0.04,-0.273 -4.118,-27.605 -12.779,-54.572 -3.189,-9.93 -6.6,-18.598 -10.195,-25.916 4.549,8.604 8.354,18.297 11.395,27.346 8.906,26.498 13.352,53.366 13.396,53.635 l 0.912,-0.149 c -0.045,-0.269 -4.501,-27.202 -13.429,-53.771 -3.18,-9.463 -6.543,-17.762 -10.053,-24.819 4.442,8.308 8.209,17.589 11.26,26.272 9.171,26.101 13.993,52.562 14.04,52.826 l 0.91,-0.164 C 121.35,56.824 116.515,30.291 107.319,4.12 c -3.16,-8.996 -6.469,-16.924 -9.891,-23.714 4.327,7.999 8.049,16.862 11.099,25.17 9.44,25.705 14.641,51.775 14.692,52.036 l 0.907,-0.179 c -0.052,-0.261 -5.265,-26.394 -14.728,-52.167 -3.128,-8.52 -6.371,-16.067 -9.699,-22.579 4.206,7.68 7.872,16.122 10.911,24.047 9.707,25.308 15.286,50.98 15.341,51.237 l 0.903,-0.195 c -0.055,-0.257 -5.646,-25.99 -15.377,-51.364 -3.083,-8.038 -6.251,-15.195 -9.477,-21.419 4.08,7.354 7.678,15.367 10.697,22.908 9.973,24.912 15.926,50.177 15.985,50.429 l 0.9,-0.21 c -0.059,-0.253 -6.029,-25.586 -16.027,-50.562 -2.777,-6.938 -5.577,-13.17 -8.395,-18.69 15.77,28.935 26.094,69.188 26.254,69.821 l 0.896,-0.226 c -0.063,-0.249 -6.411,-25.182 -16.677,-49.76 -8.385,-20.075 -16.83,-34.135 -25.243,-42.076 -0.886,-0.941 -1.774,-1.814 -2.662,-2.617 -0.466,-0.478 -0.932,-0.937 -1.399,-1.378 -0.662,-0.704 -1.324,-1.369 -1.99,-1.996 -0.658,-0.702 -1.318,-1.365 -1.981,-1.99 -0.654,-0.698 -1.311,-1.359 -1.972,-1.982 -0.65,-0.695 -1.304,-1.353 -1.962,-1.973 -0.649,-0.696 -1.302,-1.353 -1.96,-1.973 -0.646,-0.694 -1.297,-1.349 -1.953,-1.968 -0.646,-0.693 -1.297,-1.35 -1.955,-1.97 -5.913,-6.366 -12.391,-9.582 -19.341,-9.582"
             style="fill:#ffffff;fill-opacity:1;fill-rule:nonzero;stroke:none"
             id="path98"
             inkscape:connector-curvature="0" /></g></g></g><g
       id="g100"><g
         id="g102"
         clip-path="url(#clipPath106)"><g
           id="g108"
           transform="translate(131.6582,793.5728)"><path
             d="m 0,0 c -0.155,-0.38 -0.372,-0.714 -0.65,-1.001 -0.279,-0.288 -0.615,-0.513 -1.008,-0.676 -0.393,-0.164 -0.829,-0.245 -1.305,-0.245 -1.017,0 -1.819,0.289 -2.407,0.868 -0.588,0.579 -0.881,1.42 -0.881,2.525 v 6.098 h 1.259 V 1.551 c 0,-0.363 0.042,-0.692 0.126,-0.988 0.084,-0.296 0.212,-0.555 0.385,-0.775 0.172,-0.221 0.383,-0.391 0.636,-0.51 0.252,-0.12 0.546,-0.18 0.882,-0.18 0.327,0 0.622,0.058 0.888,0.172 0.265,0.115 0.49,0.273 0.676,0.471 0.186,0.199 0.327,0.433 0.424,0.703 0.097,0.269 0.145,0.559 0.145,0.869 V 7.569 H 0.232 V 1.219 C 0.232,0.786 0.154,0.38 0,0 M 5.422,-1.802 V 1.937 C 5.422,2.529 5.338,2.949 5.17,3.197 5.002,3.444 4.674,3.568 4.188,3.568 4.065,3.568 3.937,3.546 3.804,3.501 3.671,3.458 3.544,3.404 3.42,3.343 3.296,3.28 3.186,3.212 3.088,3.137 2.992,3.062 2.916,2.998 2.863,2.945 V -1.802 H 1.709 V 4.125 L 2.863,4.43 V 3.674 c 0.309,0.291 0.641,0.493 0.994,0.603 0.354,0.11 0.685,0.166 0.995,0.166 0.53,0 0.95,-0.144 1.259,-0.43 0.31,-0.288 0.464,-0.75 0.464,-1.387 v -4.428 z m 2.915,0 V 4.032 L 9.491,4.456 V -1.802 Z M 9.536,6.206 C 9.39,6.073 9.203,6.007 8.973,6.007 8.743,6.007 8.556,6.076 8.41,6.213 8.263,6.349 8.191,6.524 8.191,6.736 8.191,6.949 8.263,7.123 8.41,7.26 8.556,7.397 8.743,7.465 8.973,7.465 9.203,7.465 9.39,7.397 9.536,7.26 9.682,7.123 9.755,6.949 9.755,6.736 9.755,6.516 9.682,6.338 9.536,6.206 m 4.088,-7.862 -1.114,-0.318 -2.055,6.205 h 1.207 l 1.511,-4.667 1.591,4.667 h 1.074 z m 7.618,3.534 C 21.224,1.696 21.202,1.544 21.176,1.42 L 17.291,1.274 V 0.983 c 0,-0.266 0.039,-0.517 0.12,-0.756 0.079,-0.239 0.198,-0.449 0.357,-0.63 0.159,-0.181 0.358,-0.324 0.597,-0.431 0.238,-0.106 0.517,-0.159 0.834,-0.159 0.319,0 0.633,0.034 0.942,0.099 0.31,0.067 0.601,0.171 0.875,0.312 l -0.292,-1.074 c -0.203,-0.097 -0.47,-0.176 -0.802,-0.238 -0.331,-0.062 -0.665,-0.093 -1.001,-0.093 -0.45,0 -0.851,0.082 -1.2,0.246 -0.349,0.162 -0.642,0.388 -0.881,0.676 -0.239,0.286 -0.418,0.62 -0.537,1 -0.12,0.38 -0.179,0.791 -0.179,1.233 0,0.451 0.067,0.875 0.199,1.273 0.132,0.398 0.325,0.744 0.576,1.041 0.253,0.295 0.555,0.531 0.908,0.703 0.354,0.172 0.756,0.258 1.208,0.258 0.688,0 1.236,-0.171 1.643,-0.511 0.406,-0.34 0.61,-0.872 0.61,-1.597 0,-0.124 -0.009,-0.277 -0.026,-0.457 M 19.789,3.409 C 19.591,3.594 19.323,3.687 18.987,3.687 18.74,3.687 18.517,3.636 18.318,3.535 18.12,3.433 17.951,3.302 17.814,3.143 17.677,2.985 17.569,2.805 17.49,2.607 17.411,2.408 17.361,2.215 17.343,2.03 l 2.679,0.119 c 0.026,0.098 0.044,0.19 0.053,0.279 0.009,0.088 0.012,0.163 0.012,0.225 0,0.318 -0.099,0.57 -0.298,0.756 m 5.665,-0.504 -0.57,0.411 C 24.796,3.316 24.701,3.278 24.6,3.203 24.498,3.128 24.396,3.035 24.294,2.925 24.193,2.814 24.098,2.7 24.009,2.581 23.921,2.461 23.851,2.361 23.797,2.282 v -4.084 h -1.154 v 5.927 l 1.154,0.331 V 3.17 c 0.292,0.504 0.562,0.843 0.809,1.015 0.247,0.172 0.504,0.258 0.769,0.258 0.23,0 0.411,-0.047 0.543,-0.139 0.133,-0.093 0.253,-0.206 0.359,-0.339 z m 5.208,-3.904 c -0.119,-0.226 -0.28,-0.411 -0.484,-0.557 -0.203,-0.146 -0.436,-0.254 -0.695,-0.325 -0.261,-0.071 -0.533,-0.106 -0.816,-0.106 -0.292,0 -0.622,0.04 -0.988,0.119 -0.367,0.079 -0.74,0.208 -1.12,0.385 l 0.424,0.874 c 0.248,-0.132 0.515,-0.249 0.802,-0.35 0.288,-0.103 0.569,-0.153 0.842,-0.153 0.309,0 0.563,0.073 0.762,0.218 0.199,0.147 0.299,0.357 0.299,0.63 0,0.124 -0.028,0.232 -0.085,0.325 -0.06,0.093 -0.129,0.174 -0.214,0.245 -0.084,0.071 -0.178,0.131 -0.285,0.18 C 28.998,0.534 28.896,0.58 28.8,0.624 L 28.017,0.93 c -0.397,0.15 -0.72,0.358 -0.967,0.623 -0.248,0.265 -0.371,0.64 -0.371,1.127 0,0.291 0.061,0.545 0.185,0.762 0.124,0.216 0.287,0.4 0.49,0.55 0.203,0.151 0.433,0.263 0.689,0.338 0.256,0.075 0.522,0.113 0.796,0.113 0.336,0 0.681,-0.04 1.034,-0.12 0.354,-0.079 0.651,-0.18 0.889,-0.305 L 30.403,3.117 c -0.229,0.124 -0.478,0.232 -0.749,0.325 -0.269,0.093 -0.536,0.139 -0.802,0.139 -0.124,0 -0.248,-0.013 -0.371,-0.04 C 28.358,3.515 28.248,3.471 28.149,3.409 28.053,3.347 27.97,3.268 27.905,3.17 27.839,3.072 27.806,2.953 27.806,2.812 c 0,-0.239 0.067,-0.419 0.205,-0.543 0.137,-0.124 0.328,-0.235 0.577,-0.332 l 0.875,-0.344 c 0.185,-0.08 0.362,-0.168 0.529,-0.266 0.17,-0.097 0.317,-0.217 0.444,-0.358 0.129,-0.141 0.229,-0.307 0.299,-0.497 0.07,-0.19 0.106,-0.417 0.106,-0.683 0,-0.3 -0.06,-0.563 -0.179,-0.788 m 1.477,-0.803 v 5.834 l 1.153,0.424 v -6.258 z m 1.2,8.008 C 33.193,6.073 33.005,6.007 32.775,6.007 c -0.229,0 -0.417,0.069 -0.563,0.206 -0.146,0.136 -0.219,0.311 -0.219,0.523 0,0.213 0.073,0.387 0.219,0.524 0.146,0.137 0.334,0.205 0.563,0.205 0.23,0 0.418,-0.068 0.564,-0.205 0.145,-0.137 0.218,-0.311 0.218,-0.524 0,-0.22 -0.073,-0.398 -0.218,-0.53 m 4.605,-2.89 H 36.552 V 0.015 c 0,-0.406 0.065,-0.685 0.193,-0.835 0.128,-0.151 0.332,-0.226 0.615,-0.226 0.205,0 0.383,0.029 0.538,0.087 0.154,0.057 0.29,0.117 0.404,0.178 l -0.265,-1.008 c -0.203,-0.043 -0.389,-0.087 -0.557,-0.132 -0.168,-0.044 -0.353,-0.066 -0.556,-0.066 -0.54,0 -0.926,0.137 -1.161,0.411 -0.234,0.274 -0.351,0.742 -0.351,1.405 v 3.487 h -1.207 l 0.439,0.915 h 0.768 v 1.246 l 1.273,0.557 -0.133,-1.803 h 1.79 z m 3.957,-5.303 C 41.794,-2.27 41.668,-2.563 41.522,-2.869 41.376,-3.173 41.196,-3.456 40.978,-3.717 40.762,-3.978 40.499,-4.193 40.191,-4.36 39.879,-4.528 39.513,-4.616 39.09,-4.626 l -0.544,1.286 h 0.862 c 0.76,0 1.308,0.447 1.644,1.34 l -2.227,6.231 h 1.26 l 1.549,-4.508 1.486,4.508 h 1.114 z"
             style="fill:#575756;fill-opacity:1;fill-rule:nonzero;stroke:none"
             id="path110"
             inkscape:connector-curvature="0" /></g><g
           id="g112"
           transform="translate(182.6563,796.5576)"><path
             d="m 0,0 c -0.264,0.423 -0.676,0.635 -1.24,0.635 -0.203,0 -0.399,-0.055 -0.586,-0.164 -0.189,-0.109 -0.352,-0.263 -0.491,-0.465 -0.141,-0.201 -0.254,-0.442 -0.34,-0.726 -0.085,-0.284 -0.128,-0.6 -0.128,-0.949 0,-0.812 0.124,-1.425 0.372,-1.839 0.246,-0.415 0.659,-0.622 1.237,-0.622 0.204,0 0.401,0.054 0.588,0.164 0.187,0.108 0.355,0.264 0.504,0.464 0.149,0.201 0.266,0.438 0.352,0.713 0.085,0.275 0.127,0.583 0.127,0.923 C 0.395,-1.046 0.263,-0.423 0,0 M 1.34,-2.945 C 1.188,-3.387 0.974,-3.753 0.701,-4.045 0.43,-4.338 0.104,-4.558 -0.275,-4.706 -0.653,-4.854 -1.069,-4.928 -1.52,-4.928 c -0.358,0 -0.688,0.067 -0.989,0.203 -0.303,0.135 -0.56,0.326 -0.773,0.575 -0.213,0.249 -0.379,0.548 -0.499,0.897 -0.119,0.349 -0.179,0.742 -0.179,1.178 0,1.17 0.273,2.047 0.818,2.632 0.544,0.584 1.294,0.876 2.248,0.876 0.365,0 0.7,-0.069 1.002,-0.209 C 0.41,1.084 0.671,0.89 0.887,0.641 1.104,0.393 1.27,0.094 1.391,-0.255 1.509,-0.604 1.57,-0.992 1.57,-1.42 1.57,-1.996 1.493,-2.505 1.34,-2.945"
             style="fill:#575756;fill-opacity:1;fill-rule:nonzero;stroke:none"
             id="path114"
             inkscape:connector-curvature="0" /></g><g
           id="g116"
           transform="translate(189.1008,799.9936)"><path
             d="M 0,0 -1.06,0.419 H -1.277 C -1.42,0.419 -1.563,0.38 -1.706,0.302 -1.847,0.223 -1.976,0.107 -2.095,-0.045 -2.213,-0.199 -2.308,-0.391 -2.381,-0.622 -2.454,-0.853 -2.49,-1.117 -2.49,-1.413 v -0.904 h 1.455 L -1.328,-3.219 H -2.49 v -4.962 h -1.111 v 4.962 h -1.021 l 0.293,0.902 h 0.728 v 0.484 c 0,0.445 0.054,0.856 0.165,1.231 0.112,0.375 0.276,0.698 0.493,0.969 0.217,0.27 0.486,0.479 0.81,0.628 0.324,0.148 0.694,0.223 1.11,0.223 0.324,0 0.602,-0.033 0.831,-0.098 0.23,-0.066 0.447,-0.152 0.651,-0.256 z"
             style="fill:#575756;fill-opacity:1;fill-rule:nonzero;stroke:none"
             id="path118"
             inkscape:connector-curvature="0" /></g><g
           id="g120"
           transform="translate(194.3058,798.0699)"><path
             d="m 0,0 -1.161,-3.325 h 2.322 z m 2.196,-6.258 -0.704,1.977 h -2.974 l -0.69,-1.977 H -3.32 l 2.833,7.711 -0.28,0.707 h 1.315 l 2.976,-8.418 z"
             style="fill:#575756;fill-opacity:1;fill-rule:nonzero;stroke:none"
             id="path122"
             inkscape:connector-curvature="0" /></g><g
           id="g124"
           transform="translate(202.7767,795.6409)"><path
             d="m 0,0 c -0.072,0.293 -0.188,0.544 -0.344,0.753 -0.159,0.21 -0.362,0.371 -0.612,0.485 -0.252,0.113 -0.553,0.17 -0.902,0.17 -0.178,0 -0.366,-0.033 -0.561,-0.098 C -2.616,1.244 -2.761,1.189 -2.855,1.146 v -2.959 c 0,-0.436 0.105,-0.781 0.315,-1.034 0.209,-0.253 0.504,-0.379 0.886,-0.379 0.265,0 0.506,0.058 0.722,0.176 0.216,0.118 0.402,0.279 0.556,0.485 0.152,0.205 0.271,0.442 0.357,0.713 0.084,0.27 0.128,0.559 0.128,0.864 C 0.109,-0.622 0.073,-0.292 0,0 M 1.066,-2.035 C 0.921,-2.454 0.718,-2.812 0.46,-3.109 0.199,-3.405 -0.106,-3.634 -0.46,-3.796 c -0.353,-0.161 -0.739,-0.242 -1.155,-0.242 -0.069,0 -0.154,0.007 -0.256,0.019 -0.102,0.014 -0.21,0.033 -0.326,0.059 -0.114,0.027 -0.231,0.065 -0.35,0.112 -0.12,0.047 -0.222,0.106 -0.308,0.177 v -2.762 l -1.11,-0.381 v 8.837 l 1.11,0.327 V 1.604 c 0.204,0.2 0.454,0.373 0.749,0.517 0.293,0.144 0.632,0.216 1.015,0.216 0.39,0 0.735,-0.083 1.033,-0.248 C 0.24,1.922 0.488,1.7 0.683,1.421 0.88,1.141 1.028,0.823 1.13,0.465 c 0.103,-0.358 0.153,-0.725 0.153,-1.1 0,-0.515 -0.072,-0.981 -0.217,-1.4"
             style="fill:#575756;fill-opacity:1;fill-rule:nonzero;stroke:none"
             id="path126"
             inkscape:connector-curvature="0" /></g><g
           id="g128"
           transform="translate(209.4804,795.6409)"><path
             d="m 0,0 c -0.073,0.293 -0.188,0.544 -0.345,0.753 -0.158,0.21 -0.362,0.371 -0.613,0.485 -0.251,0.113 -0.551,0.17 -0.9,0.17 C -2.037,1.408 -2.224,1.375 -2.42,1.31 -2.616,1.244 -2.761,1.189 -2.854,1.146 v -2.959 c 0,-0.436 0.104,-0.781 0.313,-1.034 0.209,-0.253 0.504,-0.379 0.888,-0.379 0.263,0 0.504,0.058 0.722,0.176 0.215,0.118 0.401,0.279 0.553,0.485 0.153,0.205 0.273,0.442 0.359,0.713 0.084,0.27 0.126,0.559 0.126,0.864 C 0.107,-0.622 0.071,-0.292 0,0 M 1.066,-2.035 C 0.921,-2.454 0.719,-2.812 0.46,-3.109 0.199,-3.405 -0.107,-3.634 -0.459,-3.796 c -0.355,-0.161 -0.739,-0.242 -1.157,-0.242 -0.068,0 -0.154,0.007 -0.255,0.019 -0.103,0.014 -0.211,0.033 -0.326,0.059 -0.115,0.027 -0.231,0.065 -0.351,0.112 -0.119,0.047 -0.221,0.106 -0.306,0.177 V -6.433 L -3.966,-6.814 V 2.023 L -2.854,2.35 V 1.604 c 0.205,0.2 0.453,0.373 0.747,0.517 0.293,0.144 0.633,0.216 1.015,0.216 0.392,0 0.736,-0.083 1.034,-0.248 C 0.239,1.922 0.487,1.7 0.682,1.421 0.88,1.141 1.026,0.823 1.13,0.465 c 0.102,-0.358 0.153,-0.725 0.153,-1.1 0,-0.515 -0.072,-0.981 -0.217,-1.4"
             style="fill:#575756;fill-opacity:1;fill-rule:nonzero;stroke:none"
             id="path130"
             inkscape:connector-curvature="0" /></g><g
           id="g132"
           transform="translate(212.2181,791.8123)"><path
             d="M 0,0 V 8.902 L 1.111,9.32 V 0 Z"
             style="fill:#575756;fill-opacity:1;fill-rule:nonzero;stroke:none"
             id="path134"
             inkscape:connector-curvature="0" /></g><g
           id="g136"
           transform="translate(215.1946,791.8123)"><path
             d="M 0,0 V 5.76 L 1.111,6.178 V 0 Z M 1.154,7.907 C 1.014,7.775 0.834,7.71 0.612,7.71 0.391,7.71 0.21,7.778 0.069,7.913 c -0.14,0.135 -0.21,0.308 -0.21,0.517 0,0.209 0.07,0.382 0.21,0.517 C 0.21,9.083 0.391,9.15 0.612,9.15 0.834,9.15 1.014,9.083 1.154,8.947 1.295,8.812 1.364,8.639 1.364,8.43 1.364,8.212 1.295,8.038 1.154,7.907"
             style="fill:#575756;fill-opacity:1;fill-rule:nonzero;stroke:none"
             id="path138"
             inkscape:connector-curvature="0" /></g><g
           id="g140"
           transform="translate(221.2913,796.957)"><path
             d="m 0,0 c -0.192,0.183 -0.45,0.274 -0.773,0.274 -0.239,0 -0.454,-0.05 -0.645,-0.149 -0.192,-0.101 -0.354,-0.23 -0.485,-0.387 -0.134,-0.157 -0.237,-0.334 -0.313,-0.53 -0.076,-0.196 -0.123,-0.387 -0.141,-0.57 l 2.58,0.118 c 0.026,0.096 0.042,0.188 0.051,0.275 0.009,0.088 0.013,0.161 0.013,0.223 C 0.287,-0.432 0.191,-0.183 0,0 M 1.398,-1.512 C 1.381,-1.691 1.359,-1.842 1.334,-1.964 l -3.742,-0.144 v -0.288 c 0,-0.262 0.039,-0.51 0.116,-0.746 0.076,-0.235 0.191,-0.443 0.344,-0.622 0.153,-0.178 0.345,-0.321 0.576,-0.426 0.227,-0.104 0.497,-0.157 0.804,-0.157 0.306,0 0.607,0.033 0.905,0.098 0.299,0.066 0.579,0.169 0.844,0.308 L 0.9,-5.001 C 0.703,-5.097 0.446,-5.175 0.127,-5.237 c -0.319,-0.06 -0.64,-0.091 -0.963,-0.091 -0.435,0 -0.82,0.081 -1.157,0.242 -0.335,0.162 -0.619,0.384 -0.848,0.667 -0.231,0.284 -0.402,0.614 -0.517,0.989 -0.116,0.375 -0.174,0.781 -0.174,1.218 0,0.445 0.064,0.863 0.192,1.256 0.127,0.393 0.314,0.735 0.556,1.028 0.242,0.292 0.534,0.523 0.875,0.693 0.339,0.171 0.728,0.256 1.16,0.256 0.665,0 1.194,-0.169 1.585,-0.504 0.392,-0.336 0.588,-0.862 0.588,-1.578 0,-0.122 -0.01,-0.272 -0.026,-0.451"
             style="fill:#575756;fill-opacity:1;fill-rule:nonzero;stroke:none"
             id="path142"
             inkscape:connector-curvature="0" /></g><g
           id="g144"
           transform="translate(227.8978,795.9232)"><path
             d="m 0,0 c 0,0.427 -0.118,0.744 -0.351,0.948 -0.235,0.206 -0.508,0.308 -0.824,0.308 -0.256,0 -0.491,-0.057 -0.709,-0.17 C -2.1,0.972 -2.287,0.818 -2.446,0.622 -2.601,0.425 -2.725,0.191 -2.816,-0.079 -2.904,-0.349 -2.95,-0.642 -2.95,-0.956 c 0,-0.873 0.161,-1.492 0.479,-1.859 0.32,-0.367 0.824,-0.55 1.514,-0.55 0.179,0 0.355,0.039 0.53,0.117 0.174,0.08 0.317,0.167 0.427,0.263 z m 0.064,-4.399 v 0.942 c -0.272,-0.287 -0.543,-0.499 -0.811,-0.634 -0.268,-0.136 -0.581,-0.203 -0.939,-0.203 -0.407,0 -0.766,0.085 -1.072,0.255 -0.307,0.17 -0.56,0.395 -0.759,0.674 -0.201,0.279 -0.351,0.598 -0.455,0.956 -0.102,0.358 -0.152,0.72 -0.152,1.086 0,0.506 0.07,0.969 0.211,1.388 0.14,0.419 0.337,0.777 0.594,1.074 0.254,0.296 0.556,0.528 0.905,0.693 0.35,0.166 0.737,0.249 1.162,0.249 0.197,0 0.393,-0.022 0.588,-0.065 C -0.469,1.972 -0.247,1.876 0,1.727 v 3.156 l 1.111,0.379 v -9.268 z"
             style="fill:#575756;fill-opacity:1;fill-rule:nonzero;stroke:none"
             id="path146"
             inkscape:connector-curvature="0" /></g><g
           id="g148"
           transform="translate(238.0042,793.0555)"><path
             d="m 0,0 c -0.132,-0.297 -0.316,-0.55 -0.55,-0.759 -0.233,-0.209 -0.513,-0.371 -0.834,-0.484 -0.325,-0.113 -0.674,-0.17 -1.049,-0.17 -0.374,0 -0.727,0.037 -1.06,0.111 -0.331,0.074 -0.642,0.167 -0.932,0.282 l -0.179,1.44 c 0.29,-0.236 0.601,-0.43 0.932,-0.583 0.332,-0.154 0.721,-0.23 1.164,-0.23 0.186,0 0.366,0.031 0.541,0.092 0.175,0.061 0.33,0.146 0.467,0.256 0.136,0.109 0.245,0.239 0.325,0.393 0.082,0.152 0.121,0.324 0.121,0.516 0,0.183 -0.044,0.345 -0.127,0.485 -0.085,0.14 -0.188,0.263 -0.307,0.373 -0.12,0.109 -0.241,0.2 -0.363,0.275 -0.125,0.074 -0.229,0.137 -0.312,0.19 l -0.754,0.47 c -0.536,0.332 -0.925,0.677 -1.163,1.035 -0.239,0.358 -0.357,0.742 -0.357,1.152 0,0.367 0.066,0.7 0.198,1.001 0.132,0.301 0.32,0.559 0.561,0.773 0.243,0.213 0.532,0.377 0.869,0.491 0.337,0.113 0.708,0.17 1.116,0.17 0.172,0 0.345,-0.018 0.518,-0.053 0.176,-0.034 0.344,-0.078 0.505,-0.13 0.16,-0.053 0.305,-0.11 0.434,-0.171 0.128,-0.061 0.23,-0.118 0.306,-0.17 V 5.433 C -0.135,5.66 -0.383,5.854 -0.678,6.016 -0.971,6.177 -1.309,6.258 -1.693,6.258 -1.897,6.258 -2.09,6.231 -2.273,6.179 -2.456,6.127 -2.619,6.048 -2.765,5.944 -2.911,5.839 -3.025,5.706 -3.109,5.544 -3.195,5.383 -3.236,5.198 -3.236,4.988 c 0,-0.175 0.033,-0.327 0.101,-0.459 0.069,-0.13 0.16,-0.251 0.273,-0.359 0.116,-0.109 0.249,-0.212 0.397,-0.308 0.15,-0.097 0.302,-0.196 0.454,-0.301 L -1.259,3.077 C -1.105,2.98 -0.943,2.868 -0.773,2.737 -0.603,2.605 -0.445,2.454 -0.3,2.284 -0.155,2.114 -0.037,1.92 0.057,1.702 0.151,1.483 0.198,1.244 0.198,0.982 0.198,0.624 0.132,0.297 0,0"
             style="fill:#575756;fill-opacity:1;fill-rule:nonzero;stroke:none"
             id="path150"
             inkscape:connector-curvature="0" /></g><g
           id="g152"
           transform="translate(243.2317,796.2237)"><path
             d="M 0,0 -0.944,0.943 H -1.175 C -1.362,0.943 -1.55,0.892 -1.742,0.792 -1.934,0.691 -2.108,0.548 -2.265,0.36 -2.424,0.172 -2.55,-0.063 -2.648,-0.347 -2.746,-0.63 -2.796,-0.956 -2.796,-1.322 c 0,-0.341 0.034,-0.65 0.103,-0.93 0.068,-0.279 0.174,-0.519 0.319,-0.72 0.145,-0.2 0.332,-0.358 0.562,-0.471 0.229,-0.114 0.507,-0.17 0.829,-0.17 0.325,0 0.616,0.046 0.875,0.137 0.26,0.092 0.496,0.199 0.71,0.321 L 0.384,-4.124 c -0.221,-0.165 -0.49,-0.285 -0.804,-0.359 -0.316,-0.075 -0.61,-0.112 -0.882,-0.112 -0.426,0 -0.802,0.072 -1.129,0.216 -0.33,0.144 -0.607,0.352 -0.836,0.622 -0.232,0.271 -0.405,0.593 -0.524,0.969 -0.119,0.375 -0.179,0.798 -0.179,1.27 0,0.505 0.076,0.959 0.229,1.361 0.153,0.401 0.36,0.744 0.62,1.028 0.259,0.283 0.559,0.501 0.899,0.654 0.341,0.153 0.702,0.229 1.086,0.229 0.391,0 0.773,-0.087 1.143,-0.262 0.371,-0.174 0.649,-0.48 0.838,-0.916 z"
             style="fill:#575756;fill-opacity:1;fill-rule:nonzero;stroke:none"
             id="path154"
             inkscape:connector-curvature="0" /></g><g
           id="g156"
           transform="translate(245.212,791.8123)"><path
             d="M 0,0 V 5.76 L 1.111,6.178 V 0 Z M 1.156,7.907 C 1.015,7.775 0.834,7.71 0.611,7.71 c -0.22,0 -0.399,0.068 -0.54,0.203 -0.141,0.135 -0.212,0.308 -0.212,0.517 0,0.209 0.071,0.382 0.212,0.517 0.141,0.136 0.32,0.203 0.54,0.203 0.223,0 0.404,-0.067 0.545,-0.203 0.14,-0.135 0.21,-0.308 0.21,-0.517 0,-0.218 -0.07,-0.392 -0.21,-0.523"
             style="fill:#575756;fill-opacity:1;fill-rule:nonzero;stroke:none"
             id="path158"
             inkscape:connector-curvature="0" /></g><g
           id="g160"
           transform="translate(251.3076,796.957)"><path
             d="m 0,0 c -0.192,0.183 -0.449,0.274 -0.771,0.274 -0.238,0 -0.453,-0.05 -0.645,-0.149 -0.193,-0.101 -0.354,-0.23 -0.485,-0.387 -0.133,-0.157 -0.238,-0.334 -0.314,-0.53 -0.076,-0.196 -0.122,-0.387 -0.139,-0.57 l 2.579,0.118 c 0.024,0.096 0.042,0.188 0.05,0.275 0.009,0.088 0.013,0.161 0.013,0.223 C 0.288,-0.432 0.192,-0.183 0,0 M 1.398,-1.512 C 1.382,-1.691 1.361,-1.842 1.335,-1.964 l -3.742,-0.144 v -0.288 c 0,-0.262 0.04,-0.51 0.116,-0.746 0.076,-0.235 0.191,-0.443 0.344,-0.622 0.154,-0.178 0.344,-0.321 0.575,-0.426 0.23,-0.104 0.498,-0.157 0.805,-0.157 0.305,0 0.608,0.033 0.907,0.098 0.297,0.066 0.578,0.169 0.841,0.308 l -0.28,-1.06 C 0.704,-5.097 0.447,-5.175 0.128,-5.237 c -0.32,-0.06 -0.64,-0.091 -0.964,-0.091 -0.434,0 -0.819,0.081 -1.154,0.242 -0.337,0.162 -0.621,0.384 -0.851,0.667 -0.23,0.284 -0.401,0.614 -0.516,0.989 -0.115,0.375 -0.173,0.781 -0.173,1.218 0,0.445 0.064,0.863 0.191,1.256 0.129,0.393 0.313,0.735 0.555,1.028 0.244,0.292 0.535,0.523 0.875,0.693 0.341,0.171 0.729,0.256 1.163,0.256 0.662,0 1.191,-0.169 1.583,-0.504 0.391,-0.336 0.587,-0.862 0.587,-1.578 0,-0.122 -0.009,-0.272 -0.026,-0.451"
             style="fill:#575756;fill-opacity:1;fill-rule:nonzero;stroke:none"
             id="path162"
             inkscape:connector-curvature="0" /></g><g
           id="g164"
           transform="translate(257.7892,791.8123)"><path
             d="m 0,0 v 3.691 c 0,0.585 -0.082,1 -0.244,1.244 -0.162,0.244 -0.477,0.367 -0.945,0.367 -0.118,0 -0.243,-0.022 -0.37,-0.065 C -1.685,5.192 -1.811,5.14 -1.93,5.079 -2.049,5.017 -2.156,4.95 -2.248,4.876 -2.342,4.802 -2.414,4.739 -2.465,4.686 V 0 h -1.112 v 5.852 l 1.112,0.3 V 5.407 c 0.297,0.287 0.617,0.486 0.957,0.595 0.34,0.11 0.66,0.164 0.958,0.164 0.511,0 0.914,-0.143 1.213,-0.426 C 0.961,5.456 1.111,5 1.111,4.372 V 0 Z"
             style="fill:#575756;fill-opacity:1;fill-rule:nonzero;stroke:none"
             id="path166"
             inkscape:connector-curvature="0" /></g><g
           id="g168"
           transform="translate(264.3253,796.2237)"><path
             d="M 0,0 -0.943,0.943 H -1.175 C -1.362,0.943 -1.55,0.892 -1.742,0.792 -1.934,0.691 -2.109,0.548 -2.267,0.36 -2.424,0.172 -2.551,-0.063 -2.651,-0.347 -2.748,-0.63 -2.796,-0.956 -2.796,-1.322 c 0,-0.341 0.034,-0.65 0.102,-0.93 0.067,-0.279 0.174,-0.519 0.319,-0.72 0.144,-0.2 0.331,-0.358 0.563,-0.471 0.228,-0.114 0.506,-0.17 0.829,-0.17 0.324,0 0.616,0.046 0.875,0.137 0.258,0.092 0.496,0.199 0.708,0.321 L 0.384,-4.124 c -0.222,-0.165 -0.49,-0.285 -0.805,-0.359 -0.316,-0.075 -0.609,-0.112 -0.881,-0.112 -0.427,0 -0.801,0.072 -1.131,0.216 -0.328,0.144 -0.606,0.352 -0.836,0.622 -0.229,0.271 -0.404,0.593 -0.523,0.969 -0.119,0.375 -0.179,0.798 -0.179,1.27 0,0.505 0.077,0.959 0.23,1.361 0.153,0.401 0.36,0.744 0.62,1.028 0.258,0.283 0.559,0.501 0.899,0.654 0.34,0.153 0.702,0.229 1.087,0.229 0.391,0 0.771,-0.087 1.14,-0.262 0.372,-0.174 0.651,-0.48 0.838,-0.916 z"
             style="fill:#575756;fill-opacity:1;fill-rule:nonzero;stroke:none"
             id="path170"
             inkscape:connector-curvature="0" /></g><g
           id="g172"
           transform="translate(269.35,796.957)"><path
             d="m 0,0 c -0.192,0.183 -0.45,0.274 -0.772,0.274 -0.239,0 -0.454,-0.05 -0.646,-0.149 -0.191,-0.101 -0.352,-0.23 -0.485,-0.387 -0.133,-0.157 -0.236,-0.334 -0.313,-0.53 -0.076,-0.196 -0.123,-0.387 -0.14,-0.57 l 2.579,0.118 c 0.026,0.096 0.043,0.188 0.051,0.275 0.009,0.088 0.012,0.161 0.012,0.223 C 0.286,-0.432 0.191,-0.183 0,0 M 1.398,-1.512 C 1.382,-1.691 1.359,-1.842 1.335,-1.964 l -3.742,-0.144 v -0.288 c 0,-0.262 0.039,-0.51 0.115,-0.746 0.076,-0.235 0.192,-0.443 0.345,-0.622 0.153,-0.178 0.344,-0.321 0.574,-0.426 0.231,-0.104 0.498,-0.157 0.805,-0.157 0.306,0 0.609,0.033 0.908,0.098 0.296,0.066 0.576,0.169 0.841,0.308 L 0.9,-5.001 C 0.704,-5.097 0.447,-5.175 0.127,-5.237 c -0.319,-0.06 -0.641,-0.091 -0.964,-0.091 -0.433,0 -0.819,0.081 -1.155,0.242 -0.337,0.162 -0.62,0.384 -0.848,0.667 -0.232,0.284 -0.403,0.614 -0.518,0.989 -0.115,0.375 -0.173,0.781 -0.173,1.218 0,0.445 0.065,0.863 0.192,1.256 0.127,0.393 0.312,0.735 0.555,1.028 0.243,0.292 0.534,0.523 0.876,0.693 0.339,0.171 0.727,0.256 1.162,0.256 0.663,0 1.192,-0.169 1.581,-0.504 0.392,-0.336 0.59,-0.862 0.59,-1.578 0,-0.122 -0.01,-0.272 -0.027,-0.451"
             style="fill:#575756;fill-opacity:1;fill-rule:nonzero;stroke:none"
             id="path174"
             inkscape:connector-curvature="0" /></g><g
           id="g176"
           transform="translate(275.7339,792.6043)"><path
             d="m 0,0 c -0.115,-0.222 -0.27,-0.406 -0.465,-0.55 -0.197,-0.144 -0.421,-0.251 -0.672,-0.32 -0.251,-0.07 -0.513,-0.105 -0.785,-0.105 -0.281,0 -0.598,0.039 -0.953,0.117 -0.352,0.079 -0.711,0.206 -1.077,0.38 l 0.408,0.865 c 0.238,-0.132 0.496,-0.248 0.774,-0.348 0.276,-0.1 0.546,-0.15 0.81,-0.15 0.298,0 0.542,0.072 0.735,0.215 0.19,0.145 0.285,0.352 0.285,0.623 0,0.121 -0.026,0.229 -0.083,0.32 -0.054,0.092 -0.122,0.173 -0.202,0.242 -0.081,0.07 -0.173,0.129 -0.275,0.177 -0.103,0.048 -0.201,0.093 -0.294,0.137 l -0.754,0.301 c -0.383,0.149 -0.693,0.354 -0.932,0.616 -0.238,0.262 -0.356,0.633 -0.356,1.113 0,0.288 0.06,0.538 0.178,0.753 0.119,0.213 0.277,0.394 0.472,0.543 0.196,0.147 0.417,0.259 0.664,0.334 0.247,0.073 0.503,0.111 0.766,0.111 0.324,0 0.656,-0.04 0.995,-0.118 0.34,-0.079 0.627,-0.18 0.857,-0.301 L -0.248,4.064 C -0.471,4.186 -0.711,4.294 -0.971,4.386 -1.231,4.477 -1.488,4.523 -1.744,4.523 -1.862,4.523 -1.982,4.51 -2.1,4.484 -2.221,4.458 -2.326,4.413 -2.42,4.353 -2.514,4.291 -2.593,4.213 -2.656,4.117 -2.72,4.021 -2.751,3.903 -2.751,3.764 -2.751,3.528 -2.686,3.349 -2.553,3.227 -2.422,3.104 -2.236,2.995 -2,2.899 l 0.844,-0.34 C -0.977,2.481 -0.808,2.393 -0.644,2.298 -0.484,2.201 -0.341,2.083 -0.217,1.944 -0.095,1.804 0.002,1.641 0.071,1.453 0.137,1.265 0.171,1.041 0.171,0.779 0.171,0.483 0.114,0.223 0,0"
             style="fill:#575756;fill-opacity:1;fill-rule:nonzero;stroke:none"
             id="path178"
             inkscape:connector-curvature="0" /></g><g
           id="g180"
           transform="translate(134.3934,749.3896)"><path
             d="M 0,0 V 6.481 H -6.9 V 0 H -8.994 V 14.152 H -6.9 V 8.2 H 0 v 5.952 H 2.094 V 0 Z"
             style="fill:#575756;fill-opacity:1;fill-rule:nonzero;stroke:none"
             id="path182"
             inkscape:connector-curvature="0" /></g><g
           id="g184"
           transform="translate(152.7455,758.6924)"><path
             d="m 0,0 c -0.213,0.69 -0.518,1.282 -0.915,1.774 -0.397,0.493 -0.889,0.878 -1.477,1.158 -0.588,0.279 -1.256,0.419 -2.006,0.419 -0.75,0 -1.419,-0.14 -2.006,-0.419 C -6.992,2.652 -7.484,2.267 -7.881,1.774 -8.278,1.282 -8.583,0.69 -8.796,0 c -0.213,-0.691 -0.319,-1.441 -0.319,-2.249 0,-0.823 0.102,-1.576 0.308,-2.259 0.206,-0.684 0.511,-1.272 0.915,-1.763 0.404,-0.494 0.9,-0.879 1.488,-1.158 0.587,-0.279 1.256,-0.419 2.006,-0.419 0.75,0 1.418,0.14 2.006,0.419 0.588,0.279 1.08,0.664 1.477,1.158 0.397,0.491 0.702,1.079 0.915,1.763 0.213,0.683 0.32,1.436 0.32,2.259 C 0.32,-1.441 0.213,-0.691 0,0 M 2.05,-5.203 C 1.705,-6.099 1.223,-6.875 0.606,-7.528 c -0.617,-0.654 -1.352,-1.161 -2.204,-1.521 -0.853,-0.36 -1.786,-0.54 -2.8,-0.54 -1.014,0 -1.947,0.18 -2.8,0.54 -0.852,0.36 -1.587,0.863 -2.204,1.51 -0.617,0.647 -1.099,1.418 -1.444,2.314 -0.345,0.897 -0.518,1.889 -0.518,2.976 0,1.073 0.173,2.058 0.518,2.954 0.345,0.897 0.827,1.672 1.444,2.326 0.617,0.654 1.352,1.161 2.204,1.521 0.853,0.36 1.786,0.54 2.8,0.54 1.014,0 1.947,-0.18 2.8,-0.54 C -0.746,4.192 -0.011,3.685 0.606,3.031 1.223,2.377 1.705,1.602 2.05,0.705 2.395,-0.191 2.568,-1.176 2.568,-2.249 2.568,-3.321 2.395,-4.306 2.05,-5.203"
             style="fill:#575756;fill-opacity:1;fill-rule:nonzero;stroke:none"
             id="path186"
             inkscape:connector-curvature="0" /></g><g
           id="g188"
           transform="translate(169.6972,749.8745)"><path
             d="m 0,0 c -0.301,-0.132 -0.636,-0.253 -1.003,-0.364 -0.367,-0.11 -0.764,-0.201 -1.19,-0.275 -0.427,-0.074 -0.86,-0.111 -1.301,-0.111 -1.132,0 -2.149,0.181 -3.053,0.541 -0.904,0.359 -1.672,0.863 -2.304,1.51 -0.631,0.646 -1.117,1.411 -1.455,2.292 -0.338,0.882 -0.507,1.844 -0.507,2.888 0,1.073 0.177,2.065 0.529,2.976 0.353,0.911 0.852,1.698 1.5,2.359 0.646,0.661 1.417,1.175 2.314,1.543 0.896,0.367 1.888,0.551 2.976,0.551 0.441,0 0.874,-0.037 1.301,-0.11 0.426,-0.074 0.823,-0.165 1.19,-0.276 0.367,-0.11 0.702,-0.231 1.003,-0.364 0.301,-0.132 0.555,-0.257 0.761,-0.374 v -2.117 c -0.206,0.162 -0.467,0.327 -0.782,0.497 -0.317,0.168 -0.666,0.326 -1.048,0.473 -0.383,0.147 -0.787,0.265 -1.212,0.353 -0.427,0.089 -0.853,0.132 -1.279,0.132 -0.72,0 -1.385,-0.125 -1.995,-0.374 C -6.165,11.5 -6.694,11.14 -7.142,10.669 -7.591,10.199 -7.94,9.626 -8.19,8.95 -8.44,8.274 -8.564,7.51 -8.564,6.658 c 0,-0.78 0.124,-1.507 0.374,-2.183 0.25,-0.676 0.599,-1.264 1.048,-1.763 0.448,-0.5 0.977,-0.893 1.587,-1.18 0.61,-0.287 1.275,-0.43 1.995,-0.43 0.882,0 1.694,0.14 2.436,0.419 0.742,0.279 1.37,0.624 1.885,1.037 V 0.397 C 0.555,0.264 0.301,0.132 0,0"
             style="fill:#575756;fill-opacity:1;fill-rule:nonzero;stroke:none"
             id="path190"
             inkscape:connector-curvature="0" /></g><g
           id="g192"
           transform="translate(184.8963,749.3896)"><path
             d="M 0,0 V 6.481 H -6.9 V 0 H -8.994 V 14.152 H -6.9 V 8.2 H 0 v 5.952 H 2.094 V 0 Z"
             style="fill:#575756;fill-opacity:1;fill-rule:nonzero;stroke:none"
             id="path194"
             inkscape:connector-curvature="0" /></g><g
           id="g196"
           transform="translate(200.3826,751.4839)"><path
             d="m 0,0 c -0.228,-0.5 -0.544,-0.926 -0.948,-1.279 -0.405,-0.352 -0.886,-0.625 -1.444,-0.815 -0.558,-0.191 -1.162,-0.287 -1.807,-0.287 -0.647,0 -1.257,0.063 -1.831,0.188 -0.572,0.124 -1.109,0.282 -1.609,0.473 l -0.308,2.425 c 0.499,-0.397 1.036,-0.724 1.609,-0.981 0.574,-0.257 1.242,-0.385 2.006,-0.385 0.323,0 0.636,0.051 0.937,0.154 0.3,0.103 0.569,0.246 0.805,0.43 0.234,0.184 0.422,0.404 0.562,0.661 0.14,0.257 0.209,0.547 0.209,0.871 0,0.309 -0.074,0.58 -0.22,0.815 -0.147,0.235 -0.324,0.445 -0.529,0.629 -0.206,0.183 -0.416,0.338 -0.628,0.463 -0.214,0.124 -0.394,0.231 -0.541,0.319 l -1.3,0.794 c -0.926,0.558 -1.595,1.139 -2.007,1.741 -0.411,0.603 -0.617,1.249 -0.617,1.94 0,0.618 0.114,1.18 0.341,1.687 0.229,0.507 0.553,0.94 0.971,1.3 0.42,0.36 0.918,0.636 1.499,0.827 0.58,0.191 1.223,0.287 1.929,0.287 0.294,0 0.592,-0.03 0.893,-0.089 0.3,-0.059 0.591,-0.132 0.87,-0.22 0.279,-0.088 0.53,-0.184 0.75,-0.287 0.22,-0.103 0.397,-0.198 0.53,-0.286 V 9.148 c -0.353,0.382 -0.783,0.709 -1.29,0.981 -0.507,0.272 -1.092,0.408 -1.753,0.408 -0.353,0 -0.688,-0.044 -1.003,-0.132 C -4.24,10.317 -4.523,10.184 -4.773,10.008 -5.023,9.832 -5.222,9.607 -5.367,9.336 -5.515,9.064 -5.589,8.751 -5.589,8.399 c 0,-0.294 0.059,-0.551 0.177,-0.772 0.117,-0.22 0.275,-0.422 0.474,-0.606 0.198,-0.184 0.425,-0.357 0.684,-0.518 0.257,-0.162 0.517,-0.331 0.782,-0.507 l 1.3,-0.816 C -1.907,5.018 -1.628,4.828 -1.334,4.607 -1.041,4.387 -0.768,4.133 -0.518,3.847 -0.268,3.56 -0.063,3.233 0.099,2.866 0.26,2.498 0.342,2.094 0.342,1.653 0.342,1.05 0.228,0.499 0,0"
             style="fill:#575756;fill-opacity:1;fill-rule:nonzero;stroke:none"
             id="path198"
             inkscape:connector-curvature="0" /></g><g
           id="g200"
           transform="translate(215.6366,749.8745)"><path
             d="m 0,0 c -0.301,-0.132 -0.635,-0.253 -1.003,-0.364 -0.367,-0.11 -0.764,-0.201 -1.189,-0.275 -0.427,-0.074 -0.86,-0.111 -1.301,-0.111 -1.133,0 -2.15,0.181 -3.054,0.541 -0.904,0.359 -1.671,0.863 -2.304,1.51 -0.631,0.646 -1.116,1.411 -1.454,2.292 -0.338,0.882 -0.508,1.844 -0.508,2.888 0,1.073 0.177,2.065 0.53,2.976 0.353,0.911 0.852,1.698 1.499,2.359 0.646,0.661 1.418,1.175 2.315,1.543 0.895,0.367 1.888,0.551 2.976,0.551 0.441,0 0.874,-0.037 1.301,-0.11 0.425,-0.074 0.822,-0.165 1.189,-0.276 0.368,-0.11 0.702,-0.231 1.003,-0.364 0.301,-0.132 0.555,-0.257 0.761,-0.374 v -2.117 c -0.206,0.162 -0.467,0.327 -0.782,0.497 -0.316,0.168 -0.665,0.326 -1.048,0.473 -0.382,0.147 -0.785,0.265 -1.212,0.353 -0.426,0.089 -0.852,0.132 -1.278,0.132 -0.721,0 -1.386,-0.125 -1.995,-0.374 -0.61,-0.25 -1.14,-0.61 -1.588,-1.081 C -7.591,10.199 -7.94,9.626 -8.188,8.95 -8.438,8.274 -8.564,7.51 -8.564,6.658 c 0,-0.78 0.126,-1.507 0.376,-2.183 0.248,-0.676 0.597,-1.264 1.046,-1.763 0.448,-0.5 0.978,-0.893 1.588,-1.18 0.609,-0.287 1.274,-0.43 1.995,-0.43 0.881,0 1.693,0.14 2.435,0.419 0.743,0.279 1.37,0.624 1.885,1.037 V 0.397 C 0.555,0.264 0.301,0.132 0,0"
             style="fill:#575756;fill-opacity:1;fill-rule:nonzero;stroke:none"
             id="path202"
             inkscape:connector-curvature="0" /></g><g
           id="g204"
           transform="translate(230.8357,749.3896)"><path
             d="M 0,0 V 6.481 H -6.9 V 0 H -8.994 V 14.152 H -6.9 V 8.2 H 0 v 5.952 H 2.095 V 0 Z"
             style="fill:#575756;fill-opacity:1;fill-rule:nonzero;stroke:none"
             id="path206"
             inkscape:connector-curvature="0" /></g><g
           id="g208"
           transform="translate(249.3863,752.2773)"><path
             d="m 0,0 c -0.257,-0.632 -0.617,-1.187 -1.081,-1.664 -0.462,-0.478 -1.021,-0.853 -1.675,-1.124 -0.654,-0.273 -1.377,-0.408 -2.171,-0.408 -1.69,0 -3.024,0.481 -4.001,1.443 -0.978,0.963 -1.466,2.363 -1.466,4.2 v 8.774 H -8.3 V 2.579 c 0,-0.603 0.069,-1.15 0.209,-1.642 0.14,-0.492 0.353,-0.922 0.64,-1.29 0.287,-0.367 0.64,-0.65 1.058,-0.848 0.419,-0.199 0.907,-0.298 1.466,-0.298 0.544,0 1.036,0.095 1.477,0.287 0.441,0.19 0.816,0.451 1.125,0.782 0.308,0.331 0.543,0.72 0.705,1.169 0.161,0.448 0.242,0.929 0.242,1.443 v 9.039 H 0.385 V 2.028 C 0.385,1.308 0.257,0.632 0,0"
             style="fill:#575756;fill-opacity:1;fill-rule:nonzero;stroke:none"
             id="path210"
             inkscape:connector-curvature="0" /></g><g
           id="g212"
           transform="translate(262.6458,749.3896)"><path
             d="m 0,0 h -6.878 v 14.152 h 2.094 V 1.697 h 5.665 z"
             style="fill:#575756;fill-opacity:1;fill-rule:nonzero;stroke:none"
             id="path214"
             inkscape:connector-curvature="0" /></g><g
           id="g216"
           transform="translate(274.9243,749.3896)"><path
             d="M 0,0 H -7.186 V 14.152 H 0.485 L -0.176,12.521 H -5.093 V 7.98 h 4.63 l -0.64,-1.609 h -3.99 V 1.697 h 5.975 z"
             style="fill:#575756;fill-opacity:1;fill-rule:nonzero;stroke:none"
             id="path218"
             inkscape:connector-curvature="0" /></g></g></g></g></svg>